%TF.GenerationSoftware,KiCad,Pcbnew,(6.0.6)*%
%TF.CreationDate,2022-07-25T19:50:51+03:00*%
%TF.ProjectId,USB_Power_Injector_V1.0,5553425f-506f-4776-9572-5f496e6a6563,rev?*%
%TF.SameCoordinates,PX70ea928PY7952f5c*%
%TF.FileFunction,Legend,Bot*%
%TF.FilePolarity,Positive*%
%FSLAX46Y46*%
G04 Gerber Fmt 4.6, Leading zero omitted, Abs format (unit mm)*
G04 Created by KiCad (PCBNEW (6.0.6)) date 2022-07-25 19:50:51*
%MOMM*%
%LPD*%
G01*
G04 APERTURE LIST*
G04 Aperture macros list*
%AMRoundRect*
0 Rectangle with rounded corners*
0 $1 Rounding radius*
0 $2 $3 $4 $5 $6 $7 $8 $9 X,Y pos of 4 corners*
0 Add a 4 corners polygon primitive as box body*
4,1,4,$2,$3,$4,$5,$6,$7,$8,$9,$2,$3,0*
0 Add four circle primitives for the rounded corners*
1,1,$1+$1,$2,$3*
1,1,$1+$1,$4,$5*
1,1,$1+$1,$6,$7*
1,1,$1+$1,$8,$9*
0 Add four rect primitives between the rounded corners*
20,1,$1+$1,$2,$3,$4,$5,0*
20,1,$1+$1,$4,$5,$6,$7,0*
20,1,$1+$1,$6,$7,$8,$9,0*
20,1,$1+$1,$8,$9,$2,$3,0*%
G04 Aperture macros list end*
%ADD10C,0.150000*%
%ADD11C,0.120000*%
%ADD12RoundRect,0.250000X-0.412500X-1.100000X0.412500X-1.100000X0.412500X1.100000X-0.412500X1.100000X0*%
%ADD13R,1.524000X1.524000*%
%ADD14C,1.524000*%
%ADD15C,3.500000*%
%ADD16C,3.200000*%
%ADD17R,1.700000X1.700000*%
%ADD18C,1.700000*%
G04 APERTURE END LIST*
D10*
%TO.C,C2*%
X55166666Y-357142D02*
X55214285Y-404761D01*
X55357142Y-452380D01*
X55452380Y-452380D01*
X55595238Y-404761D01*
X55690476Y-309523D01*
X55738095Y-214285D01*
X55785714Y-23809D01*
X55785714Y119048D01*
X55738095Y309524D01*
X55690476Y404762D01*
X55595238Y500000D01*
X55452380Y547620D01*
X55357142Y547620D01*
X55214285Y500000D01*
X55166666Y452381D01*
X54785714Y452381D02*
X54738095Y500000D01*
X54642857Y547620D01*
X54404761Y547620D01*
X54309523Y500000D01*
X54261904Y452381D01*
X54214285Y357143D01*
X54214285Y261905D01*
X54261904Y119048D01*
X54833333Y-452380D01*
X54214285Y-452380D01*
%TO.C,C1*%
X55166666Y3642858D02*
X55214285Y3595239D01*
X55357142Y3547620D01*
X55452380Y3547620D01*
X55595238Y3595239D01*
X55690476Y3690477D01*
X55738095Y3785715D01*
X55785714Y3976191D01*
X55785714Y4119048D01*
X55738095Y4309524D01*
X55690476Y4404762D01*
X55595238Y4500000D01*
X55452380Y4547620D01*
X55357142Y4547620D01*
X55214285Y4500000D01*
X55166666Y4452381D01*
X54214285Y3547620D02*
X54785714Y3547620D01*
X54500000Y3547620D02*
X54500000Y4547620D01*
X54595238Y4404762D01*
X54690476Y4309524D01*
X54785714Y4261905D01*
D11*
%TO.C,C2*%
X50538748Y-1360000D02*
X51961252Y-1360000D01*
X50538748Y1360000D02*
X51961252Y1360000D01*
%TO.C,C1*%
X50538748Y2640000D02*
X51961252Y2640000D01*
X50538748Y5360000D02*
X51961252Y5360000D01*
%TD*%
%LPC*%
D12*
%TO.C,C2*%
X49687500Y0D03*
X52812500Y0D03*
%TD*%
D13*
%TO.C,J4*%
X47750000Y8000000D03*
D14*
X50250000Y8000000D03*
X52250000Y8000000D03*
X54750000Y8000000D03*
D15*
X57820000Y5290000D03*
X44680000Y5290000D03*
%TD*%
D16*
%TO.C,H3*%
X0Y0D03*
%TD*%
%TO.C,H1*%
X63500000Y0D03*
%TD*%
D15*
%TO.C,J2*%
X12750000Y24250000D03*
X12750000Y39550000D03*
%TD*%
D16*
%TO.C,H2*%
X63500000Y38500000D03*
%TD*%
%TO.C,H4*%
X0Y38500000D03*
%TD*%
D17*
%TO.C,J3*%
X50000000Y28600000D03*
D18*
X52500000Y28600000D03*
X52500000Y30600000D03*
X50000000Y30600000D03*
D15*
X45230000Y33310000D03*
X57270000Y33310000D03*
%TD*%
%TO.C,J1*%
X31750000Y24250000D03*
X31750000Y39550000D03*
%TD*%
D12*
%TO.C,C1*%
X49687500Y4000000D03*
X52812500Y4000000D03*
%TD*%
M02*
