%TF.GenerationSoftware,KiCad,Pcbnew,(6.0.9)*%
%TF.CreationDate,2023-04-03T22:02:57+03:00*%
%TF.ProjectId,USB_Power_Injector_2_Layer_V1.0,5553425f-506f-4776-9572-5f496e6a6563,rev?*%
%TF.SameCoordinates,PX70ea914PY7952f5c*%
%TF.FileFunction,Copper,L1,Top*%
%TF.FilePolarity,Positive*%
%FSLAX46Y46*%
G04 Gerber Fmt 4.6, Leading zero omitted, Abs format (unit mm)*
G04 Created by KiCad (PCBNEW (6.0.9)) date 2023-04-03 22:02:57*
%MOMM*%
%LPD*%
G01*
G04 APERTURE LIST*
%TA.AperFunction,ComponentPad*%
%ADD10R,1.524000X1.524000*%
%TD*%
%TA.AperFunction,ComponentPad*%
%ADD11C,1.524000*%
%TD*%
%TA.AperFunction,ComponentPad*%
%ADD12C,3.500000*%
%TD*%
%TA.AperFunction,ComponentPad*%
%ADD13R,1.700000X1.700000*%
%TD*%
%TA.AperFunction,ComponentPad*%
%ADD14C,1.700000*%
%TD*%
G04 APERTURE END LIST*
D10*
%TO.P,J4,1,VBUS*%
%TO.N,/USB_POWER*%
X47750020Y8000000D03*
D11*
%TO.P,J4,2,D-*%
%TO.N,/D_N*%
X50250020Y8000000D03*
%TO.P,J4,3,D+*%
%TO.N,/D_P*%
X52250020Y8000000D03*
%TO.P,J4,4,GND*%
%TO.N,GND*%
X54750020Y8000000D03*
D12*
%TO.P,J4,5,Shield*%
X57820020Y5290000D03*
X44680020Y5290000D03*
%TD*%
%TO.P,J2,1,Pin_1*%
%TO.N,GND*%
X12750020Y24250000D03*
X12750020Y39550000D03*
%TD*%
D13*
%TO.P,J3,1,VBUS*%
%TO.N,unconnected-(J3-Pad1)*%
X50000020Y28600000D03*
D14*
%TO.P,J3,2,D-*%
%TO.N,/D_N*%
X52500020Y28600000D03*
%TO.P,J3,3,D+*%
%TO.N,/D_P*%
X52500020Y30600000D03*
%TO.P,J3,4,GND*%
%TO.N,GND*%
X50000020Y30600000D03*
D12*
%TO.P,J3,5,Shield*%
X45230020Y33310000D03*
X57270020Y33310000D03*
%TD*%
%TO.P,J1,1,Pin_1*%
%TO.N,/USB_POWER*%
X31750020Y24250000D03*
X31750020Y39550000D03*
%TD*%
%TA.AperFunction,Conductor*%
%TO.N,GND*%
G36*
X11037815Y41229498D02*
G01*
X11084308Y41175842D01*
X11094412Y41105568D01*
X11064426Y41040423D01*
X10963870Y40925760D01*
X10958852Y40919221D01*
X10799576Y40680847D01*
X10795455Y40673710D01*
X10668653Y40416580D01*
X10665507Y40408985D01*
X10573350Y40137502D01*
X10571217Y40129542D01*
X10515286Y39848357D01*
X10514212Y39840199D01*
X10495462Y39554119D01*
X10495462Y39545881D01*
X10514212Y39259801D01*
X10515286Y39251643D01*
X10571217Y38970458D01*
X10573350Y38962498D01*
X10665507Y38691015D01*
X10668653Y38683420D01*
X10795455Y38426290D01*
X10799576Y38419153D01*
X10958851Y38180782D01*
X10963869Y38174242D01*
X10978480Y38157581D01*
X10991718Y38149184D01*
X11001485Y38155018D01*
X12660925Y39814458D01*
X12723237Y39848484D01*
X12794052Y39843419D01*
X12839115Y39814458D01*
X14496802Y38156771D01*
X14510563Y38149257D01*
X14519924Y38155715D01*
X14536171Y38174242D01*
X14541189Y38180782D01*
X14700464Y38419153D01*
X14704585Y38426290D01*
X14831387Y38683420D01*
X14834533Y38691015D01*
X14926690Y38962498D01*
X14928823Y38970458D01*
X14984754Y39251643D01*
X14985828Y39259801D01*
X15004578Y39545881D01*
X15004578Y39554119D01*
X14985828Y39840199D01*
X14984754Y39848357D01*
X14928823Y40129542D01*
X14926690Y40137502D01*
X14834533Y40408985D01*
X14831387Y40416580D01*
X14704585Y40673710D01*
X14700464Y40680847D01*
X14541188Y40919221D01*
X14536170Y40925760D01*
X14435614Y41040423D01*
X14405737Y41104827D01*
X14415423Y41175160D01*
X14461596Y41229091D01*
X14530346Y41249500D01*
X29969029Y41249500D01*
X30037150Y41229498D01*
X30083643Y41175842D01*
X30093747Y41105568D01*
X30063761Y41040422D01*
X29960747Y40922957D01*
X29796848Y40677664D01*
X29795024Y40673965D01*
X29795021Y40673960D01*
X29672179Y40424861D01*
X29666368Y40413077D01*
X29665045Y40409179D01*
X29665044Y40409177D01*
X29573220Y40138673D01*
X29571539Y40133722D01*
X29570735Y40129678D01*
X29570733Y40129672D01*
X29532405Y39936980D01*
X29513986Y39844380D01*
X29513717Y39840269D01*
X29513716Y39840265D01*
X29504385Y39697900D01*
X29494691Y39550000D01*
X29513986Y39255620D01*
X29514790Y39251580D01*
X29514790Y39251577D01*
X29570708Y38970458D01*
X29571539Y38966278D01*
X29572865Y38962372D01*
X29572866Y38962368D01*
X29590000Y38911893D01*
X29666368Y38686923D01*
X29668189Y38683230D01*
X29668190Y38683228D01*
X29764641Y38487646D01*
X29796848Y38422336D01*
X29960747Y38177043D01*
X29963461Y38173949D01*
X29963465Y38173943D01*
X30077765Y38043610D01*
X30155262Y37955242D01*
X30158351Y37952533D01*
X30373963Y37763445D01*
X30373969Y37763441D01*
X30377063Y37760727D01*
X30380489Y37758438D01*
X30380494Y37758434D01*
X30564559Y37635446D01*
X30622355Y37596828D01*
X30626054Y37595004D01*
X30626059Y37595001D01*
X30882309Y37468633D01*
X30886943Y37466348D01*
X30890841Y37465025D01*
X30890843Y37465024D01*
X31162388Y37372846D01*
X31162392Y37372845D01*
X31166298Y37371519D01*
X31170342Y37370715D01*
X31170348Y37370713D01*
X31451597Y37314770D01*
X31451600Y37314770D01*
X31455640Y37313966D01*
X31459751Y37313697D01*
X31459755Y37313696D01*
X31745901Y37294941D01*
X31750020Y37294671D01*
X31754139Y37294941D01*
X32040285Y37313696D01*
X32040289Y37313697D01*
X32044400Y37313966D01*
X32048440Y37314770D01*
X32048443Y37314770D01*
X32329692Y37370713D01*
X32329698Y37370715D01*
X32333742Y37371519D01*
X32337648Y37372845D01*
X32337652Y37372846D01*
X32609197Y37465024D01*
X32609199Y37465025D01*
X32613097Y37466348D01*
X32617731Y37468633D01*
X32873981Y37595001D01*
X32873986Y37595004D01*
X32877685Y37596828D01*
X32935481Y37635446D01*
X33119546Y37758434D01*
X33119551Y37758438D01*
X33122977Y37760727D01*
X33126071Y37763441D01*
X33126077Y37763445D01*
X33341689Y37952533D01*
X33344778Y37955242D01*
X33422275Y38043610D01*
X33536575Y38173943D01*
X33536579Y38173949D01*
X33539293Y38177043D01*
X33703192Y38422336D01*
X33735400Y38487646D01*
X33831850Y38683228D01*
X33831851Y38683230D01*
X33833672Y38686923D01*
X33910040Y38911893D01*
X33927174Y38962368D01*
X33927175Y38962372D01*
X33928501Y38966278D01*
X33929333Y38970458D01*
X33985250Y39251577D01*
X33985250Y39251580D01*
X33986054Y39255620D01*
X34005349Y39550000D01*
X33995655Y39697900D01*
X33986324Y39840265D01*
X33986323Y39840269D01*
X33986054Y39844380D01*
X33967635Y39936980D01*
X33929307Y40129672D01*
X33929305Y40129678D01*
X33928501Y40133722D01*
X33926821Y40138673D01*
X33834996Y40409177D01*
X33834995Y40409179D01*
X33833672Y40413077D01*
X33827861Y40424861D01*
X33705019Y40673960D01*
X33705016Y40673965D01*
X33703192Y40677664D01*
X33539293Y40922957D01*
X33436279Y41040422D01*
X33406402Y41104827D01*
X33416088Y41175159D01*
X33462261Y41229091D01*
X33531011Y41249500D01*
X63402700Y41249500D01*
X63470821Y41229498D01*
X63517314Y41175842D01*
X63528700Y41123500D01*
X63528700Y40725066D01*
X63508698Y40656945D01*
X63455042Y40610452D01*
X63411270Y40599358D01*
X63218560Y40586220D01*
X63218554Y40586219D01*
X63214283Y40585928D01*
X63210088Y40585059D01*
X63210086Y40585059D01*
X63074058Y40556889D01*
X62933834Y40527850D01*
X62663862Y40432248D01*
X62409362Y40300891D01*
X62405861Y40298430D01*
X62405857Y40298428D01*
X62178549Y40138673D01*
X62178543Y40138668D01*
X62175044Y40136209D01*
X62096201Y40062943D01*
X61988452Y39962817D01*
X61965244Y39941251D01*
X61962530Y39937935D01*
X61962527Y39937932D01*
X61949276Y39921742D01*
X61783843Y39719623D01*
X61634200Y39475427D01*
X61632473Y39471493D01*
X61632472Y39471491D01*
X61625600Y39455835D01*
X61519082Y39213182D01*
X61440620Y38937739D01*
X61400266Y38654196D01*
X61398767Y38367800D01*
X61399326Y38363556D01*
X61399326Y38363552D01*
X61415719Y38239031D01*
X61436149Y38083851D01*
X61511722Y37807602D01*
X61513406Y37803654D01*
X61600647Y37599122D01*
X61624088Y37544165D01*
X61771166Y37298415D01*
X61773850Y37295064D01*
X61773852Y37295062D01*
X61782690Y37284031D01*
X61950235Y37074900D01*
X62157982Y36877755D01*
X62390563Y36710629D01*
X62643673Y36576614D01*
X62912630Y36478190D01*
X63192456Y36417178D01*
X63231921Y36414072D01*
X63412586Y36399853D01*
X63478927Y36374567D01*
X63521067Y36317429D01*
X63528700Y36274241D01*
X63528700Y2225066D01*
X63508698Y2156945D01*
X63455042Y2110452D01*
X63411270Y2099358D01*
X63218560Y2086220D01*
X63218554Y2086219D01*
X63214283Y2085928D01*
X63210088Y2085059D01*
X63210086Y2085059D01*
X63074058Y2056889D01*
X62933834Y2027850D01*
X62663862Y1932248D01*
X62409362Y1800891D01*
X62405861Y1798430D01*
X62405857Y1798428D01*
X62178549Y1638673D01*
X62178543Y1638668D01*
X62175044Y1636209D01*
X61965244Y1441251D01*
X61962530Y1437935D01*
X61962527Y1437932D01*
X61949276Y1421742D01*
X61783843Y1219623D01*
X61634200Y975427D01*
X61632473Y971493D01*
X61632472Y971491D01*
X61625600Y955835D01*
X61519082Y713182D01*
X61440620Y437739D01*
X61400266Y154196D01*
X61398767Y-132200D01*
X61399326Y-136444D01*
X61399326Y-136448D01*
X61415719Y-260969D01*
X61436149Y-416149D01*
X61511722Y-692398D01*
X61513406Y-696346D01*
X61603730Y-908106D01*
X61624088Y-955835D01*
X61771166Y-1201585D01*
X61950235Y-1425100D01*
X62157982Y-1622245D01*
X62390563Y-1789371D01*
X62643673Y-1923386D01*
X62912630Y-2021810D01*
X63192456Y-2082822D01*
X63231921Y-2085928D01*
X63412586Y-2100147D01*
X63478927Y-2125433D01*
X63521067Y-2182571D01*
X63528700Y-2225759D01*
X63528700Y-2623500D01*
X63508698Y-2691621D01*
X63455042Y-2738114D01*
X63402700Y-2749500D01*
X154700Y-2749500D01*
X86579Y-2729498D01*
X40086Y-2675842D01*
X28700Y-2623500D01*
X28700Y-2221155D01*
X48702Y-2153034D01*
X102358Y-2106541D01*
X146130Y-2095447D01*
X281480Y-2086220D01*
X281486Y-2086219D01*
X285757Y-2085928D01*
X289952Y-2085059D01*
X289954Y-2085059D01*
X425981Y-2056889D01*
X566206Y-2027850D01*
X836178Y-1932248D01*
X1090678Y-1800891D01*
X1094179Y-1798430D01*
X1094183Y-1798428D01*
X1321491Y-1638673D01*
X1321497Y-1638668D01*
X1324996Y-1636209D01*
X1403839Y-1562943D01*
X1531653Y-1444172D01*
X1531656Y-1444169D01*
X1534796Y-1441251D01*
X1545595Y-1428058D01*
X1713481Y-1222941D01*
X1716197Y-1219623D01*
X1865840Y-975427D01*
X1872822Y-959522D01*
X1979234Y-717110D01*
X1979235Y-717106D01*
X1980958Y-713182D01*
X2059420Y-437739D01*
X2099774Y-154196D01*
X2101273Y132200D01*
X2099215Y147837D01*
X2082129Y277612D01*
X2063891Y416149D01*
X1988318Y692398D01*
X1875952Y955835D01*
X1728874Y1201585D01*
X1549805Y1425100D01*
X1342058Y1622245D01*
X1109477Y1789371D01*
X856367Y1923386D01*
X587410Y2021810D01*
X307584Y2082822D01*
X144812Y2095633D01*
X78473Y2120917D01*
X36333Y2178055D01*
X28700Y2221244D01*
X28700Y3529457D01*
X43279277Y3529457D01*
X43285735Y3520096D01*
X43304262Y3503849D01*
X43310802Y3498831D01*
X43549173Y3339556D01*
X43556310Y3335435D01*
X43813440Y3208633D01*
X43821035Y3205487D01*
X44092518Y3113330D01*
X44100478Y3111197D01*
X44381663Y3055266D01*
X44389821Y3054192D01*
X44675901Y3035442D01*
X44684139Y3035442D01*
X44970219Y3054192D01*
X44978377Y3055266D01*
X45259562Y3111197D01*
X45267522Y3113330D01*
X45539005Y3205487D01*
X45546600Y3208633D01*
X45803730Y3335435D01*
X45810867Y3339556D01*
X46049238Y3498831D01*
X46055778Y3503849D01*
X46072439Y3518460D01*
X46079415Y3529457D01*
X56419277Y3529457D01*
X56425735Y3520096D01*
X56444262Y3503849D01*
X56450802Y3498831D01*
X56689173Y3339556D01*
X56696310Y3335435D01*
X56953440Y3208633D01*
X56961035Y3205487D01*
X57232518Y3113330D01*
X57240478Y3111197D01*
X57521663Y3055266D01*
X57529821Y3054192D01*
X57815901Y3035442D01*
X57824139Y3035442D01*
X58110219Y3054192D01*
X58118377Y3055266D01*
X58399562Y3111197D01*
X58407522Y3113330D01*
X58679005Y3205487D01*
X58686600Y3208633D01*
X58943730Y3335435D01*
X58950867Y3339556D01*
X59189238Y3498831D01*
X59195778Y3503849D01*
X59212439Y3518460D01*
X59220836Y3531698D01*
X59215002Y3541465D01*
X57832832Y4923635D01*
X57818888Y4931249D01*
X57817055Y4931118D01*
X57810440Y4926867D01*
X56426791Y3543218D01*
X56419277Y3529457D01*
X46079415Y3529457D01*
X46080836Y3531698D01*
X46075002Y3541465D01*
X44692832Y4923635D01*
X44678888Y4931249D01*
X44677055Y4931118D01*
X44670440Y4926867D01*
X43286791Y3543218D01*
X43279277Y3529457D01*
X28700Y3529457D01*
X28700Y5285881D01*
X42425462Y5285881D01*
X42444212Y4999801D01*
X42445286Y4991643D01*
X42501217Y4710458D01*
X42503350Y4702498D01*
X42595507Y4431015D01*
X42598653Y4423420D01*
X42725455Y4166290D01*
X42729576Y4159153D01*
X42888851Y3920782D01*
X42893869Y3914242D01*
X42908480Y3897581D01*
X42921718Y3889184D01*
X42931485Y3895018D01*
X44313655Y5277188D01*
X44320033Y5288868D01*
X45038771Y5288868D01*
X45038902Y5287035D01*
X45043153Y5280420D01*
X46426802Y3896771D01*
X46440563Y3889257D01*
X46449924Y3895715D01*
X46466171Y3914242D01*
X46471189Y3920782D01*
X46630464Y4159153D01*
X46634585Y4166290D01*
X46761387Y4423420D01*
X46764533Y4431015D01*
X46856690Y4702498D01*
X46858823Y4710458D01*
X46914754Y4991643D01*
X46915828Y4999801D01*
X46934578Y5285881D01*
X55565462Y5285881D01*
X55584212Y4999801D01*
X55585286Y4991643D01*
X55641217Y4710458D01*
X55643350Y4702498D01*
X55735507Y4431015D01*
X55738653Y4423420D01*
X55865455Y4166290D01*
X55869576Y4159153D01*
X56028851Y3920782D01*
X56033869Y3914242D01*
X56048480Y3897581D01*
X56061718Y3889184D01*
X56071485Y3895018D01*
X57453655Y5277188D01*
X57460033Y5288868D01*
X58178771Y5288868D01*
X58178902Y5287035D01*
X58183153Y5280420D01*
X59566802Y3896771D01*
X59580563Y3889257D01*
X59589924Y3895715D01*
X59606171Y3914242D01*
X59611189Y3920782D01*
X59770464Y4159153D01*
X59774585Y4166290D01*
X59901387Y4423420D01*
X59904533Y4431015D01*
X59996690Y4702498D01*
X59998823Y4710458D01*
X60054754Y4991643D01*
X60055828Y4999801D01*
X60074578Y5285881D01*
X60074578Y5294119D01*
X60055828Y5580199D01*
X60054754Y5588357D01*
X59998823Y5869542D01*
X59996690Y5877502D01*
X59904533Y6148985D01*
X59901387Y6156580D01*
X59774585Y6413710D01*
X59770464Y6420847D01*
X59611189Y6659218D01*
X59606171Y6665758D01*
X59591560Y6682419D01*
X59578322Y6690816D01*
X59568555Y6684982D01*
X58186385Y5302812D01*
X58178771Y5288868D01*
X57460033Y5288868D01*
X57461269Y5291132D01*
X57461138Y5292965D01*
X57456887Y5299580D01*
X56073238Y6683229D01*
X56059477Y6690743D01*
X56050116Y6684285D01*
X56033869Y6665758D01*
X56028851Y6659218D01*
X55869576Y6420847D01*
X55865455Y6413710D01*
X55738653Y6156580D01*
X55735507Y6148985D01*
X55643350Y5877502D01*
X55641217Y5869542D01*
X55585286Y5588357D01*
X55584212Y5580199D01*
X55565462Y5294119D01*
X55565462Y5285881D01*
X46934578Y5285881D01*
X46934578Y5294119D01*
X46915828Y5580199D01*
X46914754Y5588357D01*
X46858823Y5869542D01*
X46856690Y5877502D01*
X46764533Y6148985D01*
X46761387Y6156580D01*
X46634585Y6413710D01*
X46630464Y6420847D01*
X46471189Y6659218D01*
X46466171Y6665758D01*
X46451560Y6682419D01*
X46438322Y6690816D01*
X46428555Y6684982D01*
X45046385Y5302812D01*
X45038771Y5288868D01*
X44320033Y5288868D01*
X44321269Y5291132D01*
X44321138Y5292965D01*
X44316887Y5299580D01*
X42933238Y6683229D01*
X42919477Y6690743D01*
X42910116Y6684285D01*
X42893869Y6665758D01*
X42888851Y6659218D01*
X42729576Y6420847D01*
X42725455Y6413710D01*
X42598653Y6156580D01*
X42595507Y6148985D01*
X42503350Y5877502D01*
X42501217Y5869542D01*
X42445286Y5588357D01*
X42444212Y5580199D01*
X42425462Y5294119D01*
X42425462Y5285881D01*
X28700Y5285881D01*
X28700Y7048302D01*
X43279204Y7048302D01*
X43285038Y7038535D01*
X44667208Y5656365D01*
X44681152Y5648751D01*
X44682985Y5648882D01*
X44689600Y5653133D01*
X46073249Y7036782D01*
X46080763Y7050543D01*
X46074305Y7059904D01*
X46055778Y7076151D01*
X46049238Y7081169D01*
X45810867Y7240444D01*
X45803730Y7244565D01*
X45546600Y7371367D01*
X45539005Y7374513D01*
X45267522Y7466670D01*
X45259562Y7468803D01*
X44978377Y7524734D01*
X44970219Y7525808D01*
X44684139Y7544558D01*
X44675901Y7544558D01*
X44389821Y7525808D01*
X44381663Y7524734D01*
X44100478Y7468803D01*
X44092518Y7466670D01*
X43821035Y7374513D01*
X43813440Y7371367D01*
X43556310Y7244565D01*
X43549173Y7240444D01*
X43310802Y7081169D01*
X43304262Y7076151D01*
X43287601Y7061540D01*
X43279204Y7048302D01*
X28700Y7048302D01*
X28700Y8809377D01*
X46487520Y8809377D01*
X46487521Y7190624D01*
X46487890Y7187230D01*
X46487890Y7187224D01*
X46488514Y7181485D01*
X46494169Y7129420D01*
X46544494Y6995176D01*
X46549874Y6987997D01*
X46549876Y6987994D01*
X46587883Y6937282D01*
X46630474Y6880454D01*
X46637655Y6875072D01*
X46738014Y6799856D01*
X46738017Y6799854D01*
X46745196Y6794474D01*
X46834581Y6760966D01*
X46872045Y6746921D01*
X46872047Y6746921D01*
X46879440Y6744149D01*
X46887290Y6743296D01*
X46887291Y6743296D01*
X46937237Y6737870D01*
X46940643Y6737500D01*
X47749901Y6737500D01*
X48559396Y6737501D01*
X48562790Y6737870D01*
X48562796Y6737870D01*
X48612742Y6743295D01*
X48612746Y6743296D01*
X48620600Y6744149D01*
X48754844Y6794474D01*
X48762023Y6799854D01*
X48762026Y6799856D01*
X48862385Y6875072D01*
X48869566Y6880454D01*
X48912157Y6937282D01*
X48950164Y6987994D01*
X48950166Y6987997D01*
X48955546Y6995176D01*
X49005871Y7129420D01*
X49011640Y7182527D01*
X49038882Y7248089D01*
X49097244Y7288515D01*
X49168199Y7290971D01*
X49229217Y7254676D01*
X49240114Y7241193D01*
X49279194Y7185380D01*
X49435400Y7029174D01*
X49439908Y7026017D01*
X49439911Y7026015D01*
X49611231Y6906056D01*
X49616358Y6902466D01*
X49621340Y6900143D01*
X49621345Y6900140D01*
X49810576Y6811901D01*
X49816570Y6809106D01*
X49821878Y6807684D01*
X49821880Y6807683D01*
X49851091Y6799856D01*
X50029952Y6751930D01*
X50250020Y6732677D01*
X50470088Y6751930D01*
X50648949Y6799856D01*
X50678160Y6807683D01*
X50678162Y6807684D01*
X50683470Y6809106D01*
X50689464Y6811901D01*
X50878695Y6900140D01*
X50878700Y6900143D01*
X50883682Y6902466D01*
X50888809Y6906056D01*
X51060129Y7026015D01*
X51060132Y7026017D01*
X51064640Y7029174D01*
X51160925Y7125459D01*
X51223237Y7159485D01*
X51294052Y7154420D01*
X51339115Y7125459D01*
X51435400Y7029174D01*
X51439908Y7026017D01*
X51439911Y7026015D01*
X51611231Y6906056D01*
X51616358Y6902466D01*
X51621340Y6900143D01*
X51621345Y6900140D01*
X51810576Y6811901D01*
X51816570Y6809106D01*
X51821878Y6807684D01*
X51821880Y6807683D01*
X51851091Y6799856D01*
X52029952Y6751930D01*
X52250020Y6732677D01*
X52470088Y6751930D01*
X52648949Y6799856D01*
X52678160Y6807683D01*
X52678162Y6807684D01*
X52683470Y6809106D01*
X52689464Y6811901D01*
X52878695Y6900140D01*
X52878700Y6900143D01*
X52883682Y6902466D01*
X52888809Y6906056D01*
X52950562Y6949296D01*
X54058213Y6949296D01*
X54067508Y6937282D01*
X54112104Y6906056D01*
X54121590Y6900578D01*
X54311760Y6811901D01*
X54322052Y6808155D01*
X54524724Y6753849D01*
X54535519Y6751946D01*
X54744545Y6733658D01*
X54755495Y6733658D01*
X54964521Y6751946D01*
X54975316Y6753849D01*
X55177988Y6808155D01*
X55188280Y6811901D01*
X55378450Y6900578D01*
X55387936Y6906056D01*
X55433367Y6937866D01*
X55441743Y6948345D01*
X55434677Y6961789D01*
X55348164Y7048302D01*
X56419204Y7048302D01*
X56425038Y7038535D01*
X57807208Y5656365D01*
X57821152Y5648751D01*
X57822985Y5648882D01*
X57829600Y5653133D01*
X59213249Y7036782D01*
X59220763Y7050543D01*
X59214305Y7059904D01*
X59195778Y7076151D01*
X59189238Y7081169D01*
X58950867Y7240444D01*
X58943730Y7244565D01*
X58686600Y7371367D01*
X58679005Y7374513D01*
X58407522Y7466670D01*
X58399562Y7468803D01*
X58118377Y7524734D01*
X58110219Y7525808D01*
X57824139Y7544558D01*
X57815901Y7544558D01*
X57529821Y7525808D01*
X57521663Y7524734D01*
X57240478Y7468803D01*
X57232518Y7466670D01*
X56961035Y7374513D01*
X56953440Y7371367D01*
X56696310Y7244565D01*
X56689173Y7240444D01*
X56450802Y7081169D01*
X56444262Y7076151D01*
X56427601Y7061540D01*
X56419204Y7048302D01*
X55348164Y7048302D01*
X54762831Y7633636D01*
X54748888Y7641249D01*
X54747054Y7641118D01*
X54740440Y7636867D01*
X54064640Y6961066D01*
X54058213Y6949296D01*
X52950562Y6949296D01*
X53060129Y7026015D01*
X53060132Y7026017D01*
X53064640Y7029174D01*
X53220846Y7185380D01*
X53347554Y7366339D01*
X53386101Y7449003D01*
X53433018Y7502288D01*
X53501296Y7521749D01*
X53569256Y7501207D01*
X53614491Y7449003D01*
X53650595Y7371577D01*
X53656078Y7362081D01*
X53687888Y7316652D01*
X53698365Y7308277D01*
X53711813Y7315346D01*
X54383655Y7987188D01*
X54390033Y7998868D01*
X55108771Y7998868D01*
X55108902Y7997035D01*
X55113153Y7990420D01*
X55788949Y7314624D01*
X55800724Y7308194D01*
X55812739Y7317490D01*
X55843962Y7362081D01*
X55849445Y7371577D01*
X55938119Y7561740D01*
X55941865Y7572032D01*
X55996171Y7774704D01*
X55998074Y7785499D01*
X56016362Y7994525D01*
X56016362Y8005475D01*
X55998074Y8214501D01*
X55996171Y8225296D01*
X55941865Y8427968D01*
X55938119Y8438260D01*
X55849445Y8628423D01*
X55843962Y8637919D01*
X55812152Y8683348D01*
X55801675Y8691723D01*
X55788227Y8684654D01*
X55116385Y8012812D01*
X55108771Y7998868D01*
X54390033Y7998868D01*
X54391269Y8001132D01*
X54391138Y8002965D01*
X54386887Y8009580D01*
X53711091Y8685376D01*
X53699316Y8691806D01*
X53687301Y8682510D01*
X53656078Y8637919D01*
X53650595Y8628423D01*
X53614491Y8550997D01*
X53567573Y8497712D01*
X53499296Y8478251D01*
X53431336Y8498793D01*
X53386101Y8550997D01*
X53349877Y8628680D01*
X53349875Y8628683D01*
X53347554Y8633661D01*
X53220846Y8814620D01*
X53064640Y8970826D01*
X53060132Y8973983D01*
X53060129Y8973985D01*
X52949204Y9051655D01*
X54058297Y9051655D01*
X54065366Y9038207D01*
X54737208Y8366365D01*
X54751152Y8358751D01*
X54752985Y8358882D01*
X54759600Y8363133D01*
X55435400Y9038934D01*
X55441827Y9050704D01*
X55432532Y9062718D01*
X55387936Y9093944D01*
X55378450Y9099422D01*
X55188280Y9188099D01*
X55177988Y9191845D01*
X54975316Y9246151D01*
X54964521Y9248054D01*
X54755495Y9266342D01*
X54744545Y9266342D01*
X54535519Y9248054D01*
X54524724Y9246151D01*
X54322052Y9191845D01*
X54311760Y9188099D01*
X54121597Y9099425D01*
X54112101Y9093942D01*
X54066672Y9062132D01*
X54058297Y9051655D01*
X52949204Y9051655D01*
X52888191Y9094377D01*
X52888188Y9094379D01*
X52883682Y9097534D01*
X52878700Y9099857D01*
X52878695Y9099860D01*
X52688452Y9188571D01*
X52688451Y9188571D01*
X52683470Y9190894D01*
X52678162Y9192316D01*
X52678160Y9192317D01*
X52612768Y9209839D01*
X52470088Y9248070D01*
X52250020Y9267323D01*
X52029952Y9248070D01*
X51887272Y9209839D01*
X51821880Y9192317D01*
X51821878Y9192316D01*
X51816570Y9190894D01*
X51811589Y9188572D01*
X51811588Y9188571D01*
X51621340Y9099857D01*
X51621337Y9099855D01*
X51616359Y9097534D01*
X51435400Y8970826D01*
X51339115Y8874541D01*
X51276803Y8840515D01*
X51205988Y8845580D01*
X51160925Y8874541D01*
X51064640Y8970826D01*
X51060132Y8973983D01*
X51060129Y8973985D01*
X50888191Y9094377D01*
X50888188Y9094379D01*
X50883682Y9097534D01*
X50878700Y9099857D01*
X50878695Y9099860D01*
X50688452Y9188571D01*
X50688451Y9188571D01*
X50683470Y9190894D01*
X50678162Y9192316D01*
X50678160Y9192317D01*
X50612768Y9209839D01*
X50470088Y9248070D01*
X50250020Y9267323D01*
X50029952Y9248070D01*
X49887272Y9209839D01*
X49821880Y9192317D01*
X49821878Y9192316D01*
X49816570Y9190894D01*
X49811589Y9188572D01*
X49811588Y9188571D01*
X49621340Y9099857D01*
X49621337Y9099855D01*
X49616359Y9097534D01*
X49435400Y8970826D01*
X49279194Y8814620D01*
X49269241Y8800405D01*
X49240115Y8758809D01*
X49184657Y8714481D01*
X49114038Y8707172D01*
X49050678Y8739203D01*
X49014693Y8800405D01*
X49011639Y8817475D01*
X49006725Y8862721D01*
X49006724Y8862724D01*
X49005871Y8870580D01*
X48955546Y9004824D01*
X48950166Y9012003D01*
X48950164Y9012006D01*
X48874948Y9112365D01*
X48869566Y9119546D01*
X48778097Y9188099D01*
X48762026Y9200144D01*
X48762023Y9200146D01*
X48754844Y9205526D01*
X48641399Y9248054D01*
X48627995Y9253079D01*
X48627993Y9253079D01*
X48620600Y9255851D01*
X48612750Y9256704D01*
X48612749Y9256704D01*
X48562794Y9262131D01*
X48562793Y9262131D01*
X48559397Y9262500D01*
X47750139Y9262500D01*
X46940644Y9262499D01*
X46937250Y9262130D01*
X46937244Y9262130D01*
X46887298Y9256705D01*
X46887294Y9256704D01*
X46879440Y9255851D01*
X46745196Y9205526D01*
X46738017Y9200146D01*
X46738014Y9200144D01*
X46721943Y9188099D01*
X46630474Y9119546D01*
X46625092Y9112365D01*
X46549876Y9012006D01*
X46549874Y9012003D01*
X46544494Y9004824D01*
X46494169Y8870580D01*
X46487520Y8809377D01*
X28700Y8809377D01*
X28700Y22489457D01*
X11349277Y22489457D01*
X11355735Y22480096D01*
X11374262Y22463849D01*
X11380802Y22458831D01*
X11619173Y22299556D01*
X11626310Y22295435D01*
X11883440Y22168633D01*
X11891035Y22165487D01*
X12162518Y22073330D01*
X12170478Y22071197D01*
X12451663Y22015266D01*
X12459821Y22014192D01*
X12745901Y21995442D01*
X12754139Y21995442D01*
X13040219Y22014192D01*
X13048377Y22015266D01*
X13329562Y22071197D01*
X13337522Y22073330D01*
X13609005Y22165487D01*
X13616600Y22168633D01*
X13873730Y22295435D01*
X13880867Y22299556D01*
X14119238Y22458831D01*
X14125778Y22463849D01*
X14142439Y22478460D01*
X14150836Y22491698D01*
X14145002Y22501465D01*
X12762832Y23883635D01*
X12748888Y23891249D01*
X12747055Y23891118D01*
X12740440Y23886867D01*
X11356791Y22503218D01*
X11349277Y22489457D01*
X28700Y22489457D01*
X28700Y24245881D01*
X10495462Y24245881D01*
X10514212Y23959801D01*
X10515286Y23951643D01*
X10571217Y23670458D01*
X10573350Y23662498D01*
X10665507Y23391015D01*
X10668653Y23383420D01*
X10795455Y23126290D01*
X10799576Y23119153D01*
X10958851Y22880782D01*
X10963869Y22874242D01*
X10978480Y22857581D01*
X10991718Y22849184D01*
X11001485Y22855018D01*
X12383655Y24237188D01*
X12390033Y24248868D01*
X13108771Y24248868D01*
X13108902Y24247035D01*
X13113153Y24240420D01*
X14496802Y22856771D01*
X14510563Y22849257D01*
X14519924Y22855715D01*
X14536171Y22874242D01*
X14541189Y22880782D01*
X14700464Y23119153D01*
X14704585Y23126290D01*
X14831387Y23383420D01*
X14834533Y23391015D01*
X14926690Y23662498D01*
X14928823Y23670458D01*
X14984754Y23951643D01*
X14985828Y23959801D01*
X15004578Y24245881D01*
X15004578Y24250000D01*
X29494691Y24250000D01*
X29513986Y23955620D01*
X29514790Y23951580D01*
X29514790Y23951577D01*
X29570708Y23670458D01*
X29571539Y23666278D01*
X29666368Y23386923D01*
X29796848Y23122336D01*
X29960747Y22877043D01*
X29963461Y22873949D01*
X29963465Y22873943D01*
X30152553Y22658331D01*
X30155262Y22655242D01*
X30158351Y22652533D01*
X30373963Y22463445D01*
X30373969Y22463441D01*
X30377063Y22460727D01*
X30380489Y22458438D01*
X30380494Y22458434D01*
X30564559Y22335446D01*
X30622355Y22296828D01*
X30626054Y22295004D01*
X30626059Y22295001D01*
X30882309Y22168633D01*
X30886943Y22166348D01*
X30890841Y22165025D01*
X30890843Y22165024D01*
X31162388Y22072846D01*
X31162392Y22072845D01*
X31166298Y22071519D01*
X31170342Y22070715D01*
X31170348Y22070713D01*
X31451597Y22014770D01*
X31451600Y22014770D01*
X31455640Y22013966D01*
X31459751Y22013697D01*
X31459755Y22013696D01*
X31745901Y21994941D01*
X31750020Y21994671D01*
X31754139Y21994941D01*
X32040285Y22013696D01*
X32040289Y22013697D01*
X32044400Y22013966D01*
X32048440Y22014770D01*
X32048443Y22014770D01*
X32329692Y22070713D01*
X32329698Y22070715D01*
X32333742Y22071519D01*
X32337648Y22072845D01*
X32337652Y22072846D01*
X32609197Y22165024D01*
X32609199Y22165025D01*
X32613097Y22166348D01*
X32617731Y22168633D01*
X32873981Y22295001D01*
X32873986Y22295004D01*
X32877685Y22296828D01*
X32935481Y22335446D01*
X33119546Y22458434D01*
X33119551Y22458438D01*
X33122977Y22460727D01*
X33126071Y22463441D01*
X33126077Y22463445D01*
X33341689Y22652533D01*
X33344778Y22655242D01*
X33347487Y22658331D01*
X33536575Y22873943D01*
X33536579Y22873949D01*
X33539293Y22877043D01*
X33703192Y23122336D01*
X33833672Y23386923D01*
X33928501Y23666278D01*
X33929333Y23670458D01*
X33985250Y23951577D01*
X33985250Y23951580D01*
X33986054Y23955620D01*
X34005349Y24250000D01*
X33986054Y24544380D01*
X33973224Y24608882D01*
X33929307Y24829672D01*
X33929305Y24829678D01*
X33928501Y24833722D01*
X33833672Y25113077D01*
X33703192Y25377664D01*
X33539293Y25622957D01*
X33536579Y25626051D01*
X33536575Y25626057D01*
X33347487Y25841669D01*
X33344778Y25844758D01*
X33158293Y26008302D01*
X33126077Y26036555D01*
X33126071Y26036559D01*
X33122977Y26039273D01*
X33119547Y26041565D01*
X33119546Y26041566D01*
X32881118Y26200878D01*
X32877685Y26203172D01*
X32873986Y26204996D01*
X32873981Y26204999D01*
X32616792Y26331830D01*
X32616790Y26331831D01*
X32613097Y26333652D01*
X32609197Y26334976D01*
X32337652Y26427154D01*
X32337648Y26427155D01*
X32333742Y26428481D01*
X32329698Y26429285D01*
X32329692Y26429287D01*
X32048443Y26485230D01*
X32048440Y26485230D01*
X32044400Y26486034D01*
X32040289Y26486303D01*
X32040285Y26486304D01*
X31754139Y26505059D01*
X31750020Y26505329D01*
X31745901Y26505059D01*
X31459755Y26486304D01*
X31459751Y26486303D01*
X31455640Y26486034D01*
X31451600Y26485230D01*
X31451597Y26485230D01*
X31170348Y26429287D01*
X31170342Y26429285D01*
X31166298Y26428481D01*
X31162392Y26427155D01*
X31162388Y26427154D01*
X30890843Y26334976D01*
X30886943Y26333652D01*
X30883250Y26331831D01*
X30883248Y26331830D01*
X30626060Y26204999D01*
X30626055Y26204996D01*
X30622356Y26203172D01*
X30377063Y26039273D01*
X30373969Y26036559D01*
X30373963Y26036555D01*
X30341747Y26008302D01*
X30155262Y25844758D01*
X30152553Y25841669D01*
X29963465Y25626057D01*
X29963461Y25626051D01*
X29960747Y25622957D01*
X29796848Y25377664D01*
X29666368Y25113077D01*
X29571539Y24833722D01*
X29570735Y24829678D01*
X29570733Y24829672D01*
X29526816Y24608882D01*
X29513986Y24544380D01*
X29494691Y24250000D01*
X15004578Y24250000D01*
X15004578Y24254119D01*
X14985828Y24540199D01*
X14984754Y24548357D01*
X14928823Y24829542D01*
X14926690Y24837502D01*
X14834533Y25108985D01*
X14831387Y25116580D01*
X14704585Y25373710D01*
X14700464Y25380847D01*
X14541189Y25619218D01*
X14536171Y25625758D01*
X14521560Y25642419D01*
X14508322Y25650816D01*
X14498555Y25644982D01*
X13116385Y24262812D01*
X13108771Y24248868D01*
X12390033Y24248868D01*
X12391269Y24251132D01*
X12391138Y24252965D01*
X12386887Y24259580D01*
X11003238Y25643229D01*
X10989477Y25650743D01*
X10980116Y25644285D01*
X10963869Y25625758D01*
X10958851Y25619218D01*
X10799576Y25380847D01*
X10795455Y25373710D01*
X10668653Y25116580D01*
X10665507Y25108985D01*
X10573350Y24837502D01*
X10571217Y24829542D01*
X10515286Y24548357D01*
X10514212Y24540199D01*
X10495462Y24254119D01*
X10495462Y24245881D01*
X28700Y24245881D01*
X28700Y26008302D01*
X11349204Y26008302D01*
X11355038Y25998535D01*
X12737208Y24616365D01*
X12751152Y24608751D01*
X12752985Y24608882D01*
X12759600Y24613133D01*
X14143249Y25996782D01*
X14150763Y26010543D01*
X14144305Y26019904D01*
X14125778Y26036151D01*
X14119238Y26041169D01*
X13880867Y26200444D01*
X13873730Y26204565D01*
X13616600Y26331367D01*
X13609005Y26334513D01*
X13337522Y26426670D01*
X13329562Y26428803D01*
X13048377Y26484734D01*
X13040219Y26485808D01*
X12754139Y26504558D01*
X12745901Y26504558D01*
X12459821Y26485808D01*
X12451663Y26484734D01*
X12170478Y26428803D01*
X12162518Y26426670D01*
X11891035Y26334513D01*
X11883440Y26331367D01*
X11626310Y26204565D01*
X11619173Y26200444D01*
X11380802Y26041169D01*
X11374262Y26036151D01*
X11357601Y26021540D01*
X11349204Y26008302D01*
X28700Y26008302D01*
X28700Y30594525D01*
X48645342Y30594525D01*
X48664972Y30370159D01*
X48666875Y30359364D01*
X48725166Y30141819D01*
X48728912Y30131527D01*
X48815443Y29945962D01*
X48826104Y29875771D01*
X48797173Y29811068D01*
X48792474Y29807546D01*
X48787092Y29800365D01*
X48787091Y29800364D01*
X48711876Y29700006D01*
X48711874Y29700003D01*
X48706494Y29692824D01*
X48656169Y29558580D01*
X48649520Y29497377D01*
X48649521Y27702624D01*
X48649890Y27699230D01*
X48649890Y27699224D01*
X48655018Y27652021D01*
X48656169Y27641420D01*
X48706494Y27507176D01*
X48711874Y27499997D01*
X48711876Y27499994D01*
X48769102Y27423639D01*
X48792474Y27392454D01*
X48799655Y27387072D01*
X48900014Y27311856D01*
X48900017Y27311854D01*
X48907196Y27306474D01*
X48996581Y27272966D01*
X49034045Y27258921D01*
X49034047Y27258921D01*
X49041440Y27256149D01*
X49049290Y27255296D01*
X49049291Y27255296D01*
X49099237Y27249870D01*
X49102643Y27249500D01*
X49999888Y27249500D01*
X50897396Y27249501D01*
X50900790Y27249870D01*
X50900796Y27249870D01*
X50950742Y27255295D01*
X50950746Y27255296D01*
X50958600Y27256149D01*
X51092844Y27306474D01*
X51100023Y27311854D01*
X51100026Y27311856D01*
X51200385Y27387072D01*
X51207566Y27392454D01*
X51230938Y27423639D01*
X51288164Y27499994D01*
X51288166Y27499997D01*
X51293546Y27507176D01*
X51331026Y27607155D01*
X51373667Y27663920D01*
X51440229Y27688620D01*
X51509577Y27673413D01*
X51538103Y27652021D01*
X51628619Y27561505D01*
X51633127Y27558348D01*
X51633130Y27558346D01*
X51817681Y27429122D01*
X51822190Y27425965D01*
X51827172Y27423642D01*
X51827177Y27423639D01*
X52031375Y27328420D01*
X52036357Y27326097D01*
X52041665Y27324675D01*
X52041667Y27324674D01*
X52259297Y27266361D01*
X52264612Y27264937D01*
X52500020Y27244341D01*
X52735428Y27264937D01*
X52740743Y27266361D01*
X52958373Y27324674D01*
X52958375Y27324675D01*
X52963683Y27326097D01*
X52968665Y27328420D01*
X53172863Y27423639D01*
X53172868Y27423642D01*
X53177850Y27425965D01*
X53182359Y27429122D01*
X53366910Y27558346D01*
X53366913Y27558348D01*
X53371421Y27561505D01*
X53538515Y27728599D01*
X53674055Y27922171D01*
X53773923Y28136337D01*
X53835083Y28364592D01*
X53855679Y28600000D01*
X53835083Y28835408D01*
X53773923Y29063663D01*
X53674055Y29277829D01*
X53538515Y29471401D01*
X53499011Y29510905D01*
X53464985Y29573217D01*
X53470050Y29644032D01*
X53499011Y29689095D01*
X53538515Y29728599D01*
X53674055Y29922171D01*
X53773923Y30136337D01*
X53835083Y30364592D01*
X53855679Y30600000D01*
X53835083Y30835408D01*
X53773923Y31063663D01*
X53769013Y31074192D01*
X53676378Y31272848D01*
X53676376Y31272851D01*
X53674055Y31277829D01*
X53538515Y31471401D01*
X53460459Y31549457D01*
X55869277Y31549457D01*
X55875735Y31540096D01*
X55894262Y31523849D01*
X55900802Y31518831D01*
X56139173Y31359556D01*
X56146310Y31355435D01*
X56403440Y31228633D01*
X56411035Y31225487D01*
X56682518Y31133330D01*
X56690478Y31131197D01*
X56971663Y31075266D01*
X56979821Y31074192D01*
X57265901Y31055442D01*
X57274139Y31055442D01*
X57560219Y31074192D01*
X57568377Y31075266D01*
X57849562Y31131197D01*
X57857522Y31133330D01*
X58129005Y31225487D01*
X58136600Y31228633D01*
X58393730Y31355435D01*
X58400867Y31359556D01*
X58639238Y31518831D01*
X58645778Y31523849D01*
X58662439Y31538460D01*
X58670836Y31551698D01*
X58665002Y31561465D01*
X57282832Y32943635D01*
X57268888Y32951249D01*
X57267055Y32951118D01*
X57260440Y32946867D01*
X55876791Y31563218D01*
X55869277Y31549457D01*
X53460459Y31549457D01*
X53371421Y31638495D01*
X53366913Y31641652D01*
X53366910Y31641654D01*
X53182359Y31770878D01*
X53182356Y31770880D01*
X53177850Y31774035D01*
X53172868Y31776358D01*
X53172863Y31776361D01*
X52968665Y31871580D01*
X52968664Y31871581D01*
X52963683Y31873903D01*
X52958375Y31875325D01*
X52958373Y31875326D01*
X52740743Y31933639D01*
X52740742Y31933639D01*
X52735428Y31935063D01*
X52500020Y31955659D01*
X52264612Y31935063D01*
X52259298Y31933639D01*
X52259297Y31933639D01*
X52041667Y31875326D01*
X52041665Y31875325D01*
X52036357Y31873903D01*
X52031377Y31871581D01*
X52031375Y31871580D01*
X51827172Y31776358D01*
X51827169Y31776356D01*
X51822191Y31774035D01*
X51628619Y31638495D01*
X51461525Y31471401D01*
X51352927Y31316306D01*
X51297471Y31271979D01*
X51226852Y31264670D01*
X51163491Y31296700D01*
X51146502Y31316307D01*
X51125337Y31346533D01*
X51114860Y31354908D01*
X51101412Y31347839D01*
X50089115Y30335542D01*
X50026803Y30301516D01*
X49955988Y30306581D01*
X49910925Y30335542D01*
X48897906Y31348561D01*
X48886131Y31354991D01*
X48874116Y31345695D01*
X48829577Y31282086D01*
X48824094Y31272591D01*
X48728912Y31068473D01*
X48725166Y31058181D01*
X48666875Y30840636D01*
X48664972Y30829841D01*
X48645342Y30605475D01*
X48645342Y30594525D01*
X28700Y30594525D01*
X28700Y31549457D01*
X43829277Y31549457D01*
X43835735Y31540096D01*
X43854262Y31523849D01*
X43860802Y31518831D01*
X44099173Y31359556D01*
X44106310Y31355435D01*
X44363440Y31228633D01*
X44371035Y31225487D01*
X44642518Y31133330D01*
X44650478Y31131197D01*
X44931663Y31075266D01*
X44939821Y31074192D01*
X45225901Y31055442D01*
X45234139Y31055442D01*
X45520219Y31074192D01*
X45528377Y31075266D01*
X45809562Y31131197D01*
X45817522Y31133330D01*
X46089005Y31225487D01*
X46096600Y31228633D01*
X46353730Y31355435D01*
X46360867Y31359556D01*
X46599238Y31518831D01*
X46605778Y31523849D01*
X46622439Y31538460D01*
X46630836Y31551698D01*
X46625002Y31561465D01*
X46471627Y31714840D01*
X49245112Y31714840D01*
X49252181Y31701392D01*
X49987208Y30966365D01*
X50001152Y30958751D01*
X50002985Y30958882D01*
X50009600Y30963133D01*
X50748581Y31702114D01*
X50755011Y31713889D01*
X50745715Y31725904D01*
X50682107Y31770443D01*
X50672612Y31775926D01*
X50468493Y31871108D01*
X50458201Y31874854D01*
X50240656Y31933145D01*
X50229861Y31935048D01*
X50005495Y31954678D01*
X49994545Y31954678D01*
X49770179Y31935048D01*
X49759384Y31933145D01*
X49541839Y31874854D01*
X49531547Y31871108D01*
X49327429Y31775926D01*
X49317934Y31770443D01*
X49253487Y31725317D01*
X49245112Y31714840D01*
X46471627Y31714840D01*
X45242832Y32943635D01*
X45228888Y32951249D01*
X45227055Y32951118D01*
X45220440Y32946867D01*
X43836791Y31563218D01*
X43829277Y31549457D01*
X28700Y31549457D01*
X28700Y33305881D01*
X42975462Y33305881D01*
X42994212Y33019801D01*
X42995286Y33011643D01*
X43051217Y32730458D01*
X43053350Y32722498D01*
X43145507Y32451015D01*
X43148653Y32443420D01*
X43275455Y32186290D01*
X43279576Y32179153D01*
X43438851Y31940782D01*
X43443869Y31934242D01*
X43458480Y31917581D01*
X43471718Y31909184D01*
X43481485Y31915018D01*
X44863655Y33297188D01*
X44870033Y33308868D01*
X45588771Y33308868D01*
X45588902Y33307035D01*
X45593153Y33300420D01*
X46976802Y31916771D01*
X46990563Y31909257D01*
X46999924Y31915715D01*
X47016171Y31934242D01*
X47021189Y31940782D01*
X47180464Y32179153D01*
X47184585Y32186290D01*
X47311387Y32443420D01*
X47314533Y32451015D01*
X47406690Y32722498D01*
X47408823Y32730458D01*
X47464754Y33011643D01*
X47465828Y33019801D01*
X47484578Y33305881D01*
X55015462Y33305881D01*
X55034212Y33019801D01*
X55035286Y33011643D01*
X55091217Y32730458D01*
X55093350Y32722498D01*
X55185507Y32451015D01*
X55188653Y32443420D01*
X55315455Y32186290D01*
X55319576Y32179153D01*
X55478851Y31940782D01*
X55483869Y31934242D01*
X55498480Y31917581D01*
X55511718Y31909184D01*
X55521485Y31915018D01*
X56903655Y33297188D01*
X56910033Y33308868D01*
X57628771Y33308868D01*
X57628902Y33307035D01*
X57633153Y33300420D01*
X59016802Y31916771D01*
X59030563Y31909257D01*
X59039924Y31915715D01*
X59056171Y31934242D01*
X59061189Y31940782D01*
X59220464Y32179153D01*
X59224585Y32186290D01*
X59351387Y32443420D01*
X59354533Y32451015D01*
X59446690Y32722498D01*
X59448823Y32730458D01*
X59504754Y33011643D01*
X59505828Y33019801D01*
X59524578Y33305881D01*
X59524578Y33314119D01*
X59505828Y33600199D01*
X59504754Y33608357D01*
X59448823Y33889542D01*
X59446690Y33897502D01*
X59354533Y34168985D01*
X59351387Y34176580D01*
X59224585Y34433710D01*
X59220464Y34440847D01*
X59061189Y34679218D01*
X59056171Y34685758D01*
X59041560Y34702419D01*
X59028322Y34710816D01*
X59018555Y34704982D01*
X57636385Y33322812D01*
X57628771Y33308868D01*
X56910033Y33308868D01*
X56911269Y33311132D01*
X56911138Y33312965D01*
X56906887Y33319580D01*
X55523238Y34703229D01*
X55509477Y34710743D01*
X55500116Y34704285D01*
X55483869Y34685758D01*
X55478851Y34679218D01*
X55319576Y34440847D01*
X55315455Y34433710D01*
X55188653Y34176580D01*
X55185507Y34168985D01*
X55093350Y33897502D01*
X55091217Y33889542D01*
X55035286Y33608357D01*
X55034212Y33600199D01*
X55015462Y33314119D01*
X55015462Y33305881D01*
X47484578Y33305881D01*
X47484578Y33314119D01*
X47465828Y33600199D01*
X47464754Y33608357D01*
X47408823Y33889542D01*
X47406690Y33897502D01*
X47314533Y34168985D01*
X47311387Y34176580D01*
X47184585Y34433710D01*
X47180464Y34440847D01*
X47021189Y34679218D01*
X47016171Y34685758D01*
X47001560Y34702419D01*
X46988322Y34710816D01*
X46978555Y34704982D01*
X45596385Y33322812D01*
X45588771Y33308868D01*
X44870033Y33308868D01*
X44871269Y33311132D01*
X44871138Y33312965D01*
X44866887Y33319580D01*
X43483238Y34703229D01*
X43469477Y34710743D01*
X43460116Y34704285D01*
X43443869Y34685758D01*
X43438851Y34679218D01*
X43279576Y34440847D01*
X43275455Y34433710D01*
X43148653Y34176580D01*
X43145507Y34168985D01*
X43053350Y33897502D01*
X43051217Y33889542D01*
X42995286Y33608357D01*
X42994212Y33600199D01*
X42975462Y33314119D01*
X42975462Y33305881D01*
X28700Y33305881D01*
X28700Y35068302D01*
X43829204Y35068302D01*
X43835038Y35058535D01*
X45217208Y33676365D01*
X45231152Y33668751D01*
X45232985Y33668882D01*
X45239600Y33673133D01*
X46623249Y35056782D01*
X46629539Y35068302D01*
X55869204Y35068302D01*
X55875038Y35058535D01*
X57257208Y33676365D01*
X57271152Y33668751D01*
X57272985Y33668882D01*
X57279600Y33673133D01*
X58663249Y35056782D01*
X58670763Y35070543D01*
X58664305Y35079904D01*
X58645778Y35096151D01*
X58639238Y35101169D01*
X58400867Y35260444D01*
X58393730Y35264565D01*
X58136600Y35391367D01*
X58129005Y35394513D01*
X57857522Y35486670D01*
X57849562Y35488803D01*
X57568377Y35544734D01*
X57560219Y35545808D01*
X57274139Y35564558D01*
X57265901Y35564558D01*
X56979821Y35545808D01*
X56971663Y35544734D01*
X56690478Y35488803D01*
X56682518Y35486670D01*
X56411035Y35394513D01*
X56403440Y35391367D01*
X56146310Y35264565D01*
X56139173Y35260444D01*
X55900802Y35101169D01*
X55894262Y35096151D01*
X55877601Y35081540D01*
X55869204Y35068302D01*
X46629539Y35068302D01*
X46630763Y35070543D01*
X46624305Y35079904D01*
X46605778Y35096151D01*
X46599238Y35101169D01*
X46360867Y35260444D01*
X46353730Y35264565D01*
X46096600Y35391367D01*
X46089005Y35394513D01*
X45817522Y35486670D01*
X45809562Y35488803D01*
X45528377Y35544734D01*
X45520219Y35545808D01*
X45234139Y35564558D01*
X45225901Y35564558D01*
X44939821Y35545808D01*
X44931663Y35544734D01*
X44650478Y35488803D01*
X44642518Y35486670D01*
X44371035Y35394513D01*
X44363440Y35391367D01*
X44106310Y35264565D01*
X44099173Y35260444D01*
X43860802Y35101169D01*
X43854262Y35096151D01*
X43837601Y35081540D01*
X43829204Y35068302D01*
X28700Y35068302D01*
X28700Y36278845D01*
X48702Y36346966D01*
X102358Y36393459D01*
X146130Y36404553D01*
X281480Y36413780D01*
X281486Y36413781D01*
X285757Y36414072D01*
X289952Y36414941D01*
X289954Y36414941D01*
X425981Y36443111D01*
X566206Y36472150D01*
X836178Y36567752D01*
X1090678Y36699109D01*
X1094179Y36701570D01*
X1094183Y36701572D01*
X1321491Y36861327D01*
X1321497Y36861332D01*
X1324996Y36863791D01*
X1534796Y37058749D01*
X1545595Y37071942D01*
X1713481Y37277059D01*
X1716197Y37280377D01*
X1865840Y37524573D01*
X1872822Y37540478D01*
X1979234Y37782890D01*
X1979235Y37782894D01*
X1980958Y37786818D01*
X1981710Y37789457D01*
X11349277Y37789457D01*
X11355735Y37780096D01*
X11374262Y37763849D01*
X11380802Y37758831D01*
X11619173Y37599556D01*
X11626310Y37595435D01*
X11883440Y37468633D01*
X11891035Y37465487D01*
X12162518Y37373330D01*
X12170478Y37371197D01*
X12451663Y37315266D01*
X12459821Y37314192D01*
X12745901Y37295442D01*
X12754139Y37295442D01*
X13040219Y37314192D01*
X13048377Y37315266D01*
X13329562Y37371197D01*
X13337522Y37373330D01*
X13609005Y37465487D01*
X13616600Y37468633D01*
X13873730Y37595435D01*
X13880867Y37599556D01*
X14119238Y37758831D01*
X14125778Y37763849D01*
X14142439Y37778460D01*
X14150836Y37791698D01*
X14145002Y37801465D01*
X12762832Y39183635D01*
X12748888Y39191249D01*
X12747055Y39191118D01*
X12740440Y39186867D01*
X11356791Y37803218D01*
X11349277Y37789457D01*
X1981710Y37789457D01*
X2059420Y38062261D01*
X2099774Y38345804D01*
X2101273Y38632200D01*
X2097818Y38658448D01*
X2078149Y38807845D01*
X2063891Y38916149D01*
X1988318Y39192398D01*
X1875952Y39455835D01*
X1728874Y39701585D01*
X1549805Y39925100D01*
X1342058Y40122245D01*
X1109477Y40289371D01*
X856367Y40423386D01*
X587410Y40521810D01*
X307584Y40582822D01*
X144812Y40595633D01*
X78473Y40620917D01*
X36333Y40678055D01*
X28700Y40721244D01*
X28700Y41123500D01*
X48702Y41191621D01*
X102358Y41238114D01*
X154700Y41249500D01*
X10969694Y41249500D01*
X11037815Y41229498D01*
G37*
%TD.AperFunction*%
%TD*%
M02*
