%TF.GenerationSoftware,KiCad,Pcbnew,(6.0.9)*%
%TF.CreationDate,2023-04-03T22:02:57+03:00*%
%TF.ProjectId,USB_Power_Injector_2_Layer_V1.0,5553425f-506f-4776-9572-5f496e6a6563,rev?*%
%TF.SameCoordinates,PX70ea914PY7952f5c*%
%TF.FileFunction,Legend,Bot*%
%TF.FilePolarity,Positive*%
%FSLAX46Y46*%
G04 Gerber Fmt 4.6, Leading zero omitted, Abs format (unit mm)*
G04 Created by KiCad (PCBNEW (6.0.9)) date 2023-04-03 22:02:57*
%MOMM*%
%LPD*%
G01*
G04 APERTURE LIST*
G04 Aperture macros list*
%AMRoundRect*
0 Rectangle with rounded corners*
0 $1 Rounding radius*
0 $2 $3 $4 $5 $6 $7 $8 $9 X,Y pos of 4 corners*
0 Add a 4 corners polygon primitive as box body*
4,1,4,$2,$3,$4,$5,$6,$7,$8,$9,$2,$3,0*
0 Add four circle primitives for the rounded corners*
1,1,$1+$1,$2,$3*
1,1,$1+$1,$4,$5*
1,1,$1+$1,$6,$7*
1,1,$1+$1,$8,$9*
0 Add four rect primitives between the rounded corners*
20,1,$1+$1,$2,$3,$4,$5,0*
20,1,$1+$1,$4,$5,$6,$7,0*
20,1,$1+$1,$6,$7,$8,$9,0*
20,1,$1+$1,$8,$9,$2,$3,0*%
G04 Aperture macros list end*
%ADD10C,0.150000*%
%ADD11C,0.120000*%
%ADD12R,1.524000X1.524000*%
%ADD13C,1.524000*%
%ADD14C,3.500000*%
%ADD15C,3.200000*%
%ADD16R,1.700000X1.700000*%
%ADD17C,1.700000*%
%ADD18RoundRect,0.250000X-0.412500X-1.100000X0.412500X-1.100000X0.412500X1.100000X-0.412500X1.100000X0*%
G04 APERTURE END LIST*
D10*
%TO.C,C2*%
X55166686Y-357142D02*
X55214305Y-404761D01*
X55357162Y-452380D01*
X55452400Y-452380D01*
X55595258Y-404761D01*
X55690496Y-309523D01*
X55738115Y-214285D01*
X55785734Y-23809D01*
X55785734Y119048D01*
X55738115Y309524D01*
X55690496Y404762D01*
X55595258Y500000D01*
X55452400Y547620D01*
X55357162Y547620D01*
X55214305Y500000D01*
X55166686Y452381D01*
X54785734Y452381D02*
X54738115Y500000D01*
X54642877Y547620D01*
X54404781Y547620D01*
X54309543Y500000D01*
X54261924Y452381D01*
X54214305Y357143D01*
X54214305Y261905D01*
X54261924Y119048D01*
X54833353Y-452380D01*
X54214305Y-452380D01*
%TO.C,C1*%
X55166686Y3642858D02*
X55214305Y3595239D01*
X55357162Y3547620D01*
X55452400Y3547620D01*
X55595258Y3595239D01*
X55690496Y3690477D01*
X55738115Y3785715D01*
X55785734Y3976191D01*
X55785734Y4119048D01*
X55738115Y4309524D01*
X55690496Y4404762D01*
X55595258Y4500000D01*
X55452400Y4547620D01*
X55357162Y4547620D01*
X55214305Y4500000D01*
X55166686Y4452381D01*
X54214305Y3547620D02*
X54785734Y3547620D01*
X54500020Y3547620D02*
X54500020Y4547620D01*
X54595258Y4404762D01*
X54690496Y4309524D01*
X54785734Y4261905D01*
D11*
%TO.C,C2*%
X50538768Y-1360000D02*
X51961272Y-1360000D01*
X50538768Y1360000D02*
X51961272Y1360000D01*
%TO.C,C1*%
X50538768Y2640000D02*
X51961272Y2640000D01*
X50538768Y5360000D02*
X51961272Y5360000D01*
%TD*%
%LPC*%
D12*
%TO.C,J4*%
X47750020Y8000000D03*
D13*
X50250020Y8000000D03*
X52250020Y8000000D03*
X54750020Y8000000D03*
D14*
X57820020Y5290000D03*
X44680020Y5290000D03*
%TD*%
D15*
%TO.C,H3*%
X20Y0D03*
%TD*%
%TO.C,H1*%
X63500020Y0D03*
%TD*%
D14*
%TO.C,J2*%
X12750020Y24250000D03*
X12750020Y39550000D03*
%TD*%
D15*
%TO.C,H2*%
X63500020Y38500000D03*
%TD*%
%TO.C,H4*%
X20Y38500000D03*
%TD*%
D16*
%TO.C,J3*%
X50000020Y28600000D03*
D17*
X52500020Y28600000D03*
X52500020Y30600000D03*
X50000020Y30600000D03*
D14*
X45230020Y33310000D03*
X57270020Y33310000D03*
%TD*%
%TO.C,J1*%
X31750020Y24250000D03*
X31750020Y39550000D03*
%TD*%
D18*
%TO.C,C2*%
X49687520Y0D03*
X52812520Y0D03*
%TD*%
%TO.C,C1*%
X49687520Y4000000D03*
X52812520Y4000000D03*
%TD*%
M02*
