%TF.GenerationSoftware,KiCad,Pcbnew,(6.0.6)*%
%TF.CreationDate,2022-07-25T19:50:51+03:00*%
%TF.ProjectId,USB_Power_Injector_V1.0,5553425f-506f-4776-9572-5f496e6a6563,rev?*%
%TF.SameCoordinates,PX70ea928PY7952f5c*%
%TF.FileFunction,Copper,L4,Bot*%
%TF.FilePolarity,Positive*%
%FSLAX46Y46*%
G04 Gerber Fmt 4.6, Leading zero omitted, Abs format (unit mm)*
G04 Created by KiCad (PCBNEW (6.0.6)) date 2022-07-25 19:50:51*
%MOMM*%
%LPD*%
G01*
G04 APERTURE LIST*
G04 Aperture macros list*
%AMRoundRect*
0 Rectangle with rounded corners*
0 $1 Rounding radius*
0 $2 $3 $4 $5 $6 $7 $8 $9 X,Y pos of 4 corners*
0 Add a 4 corners polygon primitive as box body*
4,1,4,$2,$3,$4,$5,$6,$7,$8,$9,$2,$3,0*
0 Add four circle primitives for the rounded corners*
1,1,$1+$1,$2,$3*
1,1,$1+$1,$4,$5*
1,1,$1+$1,$6,$7*
1,1,$1+$1,$8,$9*
0 Add four rect primitives between the rounded corners*
20,1,$1+$1,$2,$3,$4,$5,0*
20,1,$1+$1,$4,$5,$6,$7,0*
20,1,$1+$1,$6,$7,$8,$9,0*
20,1,$1+$1,$8,$9,$2,$3,0*%
G04 Aperture macros list end*
%TA.AperFunction,SMDPad,CuDef*%
%ADD10RoundRect,0.250000X-0.412500X-1.100000X0.412500X-1.100000X0.412500X1.100000X-0.412500X1.100000X0*%
%TD*%
%TA.AperFunction,ComponentPad*%
%ADD11R,1.524000X1.524000*%
%TD*%
%TA.AperFunction,ComponentPad*%
%ADD12C,1.524000*%
%TD*%
%TA.AperFunction,ComponentPad*%
%ADD13C,3.500000*%
%TD*%
%TA.AperFunction,ComponentPad*%
%ADD14R,1.700000X1.700000*%
%TD*%
%TA.AperFunction,ComponentPad*%
%ADD15C,1.700000*%
%TD*%
%TA.AperFunction,Conductor*%
%ADD16C,1.400000*%
%TD*%
%TA.AperFunction,Conductor*%
%ADD17C,0.127000*%
%TD*%
G04 APERTURE END LIST*
D10*
%TO.P,C2,1*%
%TO.N,/USB_POWER*%
X49687500Y0D03*
%TO.P,C2,2*%
%TO.N,GND*%
X52812500Y0D03*
%TD*%
D11*
%TO.P,J4,1,VBUS*%
%TO.N,/USB_POWER*%
X47750000Y8000000D03*
D12*
%TO.P,J4,2,D-*%
%TO.N,/D_N*%
X50250000Y8000000D03*
%TO.P,J4,3,D+*%
%TO.N,/D_P*%
X52250000Y8000000D03*
%TO.P,J4,4,GND*%
%TO.N,GND*%
X54750000Y8000000D03*
D13*
%TO.P,J4,5,Shield*%
X57820000Y5290000D03*
X44680000Y5290000D03*
%TD*%
%TO.P,J2,1,Pin_1*%
%TO.N,GND*%
X12750000Y24250000D03*
X12750000Y39550000D03*
%TD*%
D14*
%TO.P,J3,1,VBUS*%
%TO.N,unconnected-(J3-Pad1)*%
X50000000Y28600000D03*
D15*
%TO.P,J3,2,D-*%
%TO.N,/D_N*%
X52500000Y28600000D03*
%TO.P,J3,3,D+*%
%TO.N,/D_P*%
X52500000Y30600000D03*
%TO.P,J3,4,GND*%
%TO.N,GND*%
X50000000Y30600000D03*
D13*
%TO.P,J3,5,Shield*%
X45230000Y33310000D03*
X57270000Y33310000D03*
%TD*%
%TO.P,J1,1,Pin_1*%
%TO.N,/USB_POWER*%
X31750000Y24250000D03*
X31750000Y39550000D03*
%TD*%
D10*
%TO.P,C1,1*%
%TO.N,/USB_POWER*%
X49687500Y4000000D03*
%TO.P,C1,2*%
%TO.N,GND*%
X52812500Y4000000D03*
%TD*%
D16*
%TO.N,/USB_POWER*%
X47750000Y6750000D02*
X47750000Y8000000D01*
X49687500Y4000000D02*
X49687500Y4812500D01*
X49687500Y4812500D02*
X47750000Y6750000D01*
X49687500Y0D02*
X49687500Y4000000D01*
X49687500Y0D02*
X41750000Y0D01*
X41750000Y0D02*
X40000000Y1750000D01*
%TO.N,GND*%
X52812500Y4000000D02*
X52812500Y0D01*
%TO.N,/USB_POWER*%
X31750000Y24250000D02*
X31750000Y10000000D01*
X31750000Y10000000D02*
X40000000Y1750000D01*
X31750000Y24250000D02*
X31750000Y39550000D01*
%TO.N,GND*%
X54750000Y6750000D02*
X52812500Y4812500D01*
X52812500Y4812500D02*
X52812500Y4000000D01*
X54750000Y8000000D02*
X54750000Y6750000D01*
D17*
%TO.N,/D_P*%
X55913500Y28767724D02*
X55913500Y24282276D01*
X55913500Y24282276D02*
X51413500Y19782276D01*
X53336500Y29763500D02*
X54917724Y29763500D01*
X54917724Y29763500D02*
X55913500Y28767724D01*
X52500000Y30600000D02*
X53336500Y29763500D01*
X51413500Y8836500D02*
X52250000Y8000000D01*
X51413500Y19782276D02*
X51413500Y8836500D01*
%TO.N,/D_N*%
X54782276Y29436500D02*
X55586500Y28632276D01*
X55586500Y28632276D02*
X55586500Y24417724D01*
X55586500Y24417724D02*
X51086500Y19917724D01*
X52500000Y28600000D02*
X53336500Y29436500D01*
X51086500Y8836500D02*
X50250000Y8000000D01*
X53336500Y29436500D02*
X54782276Y29436500D01*
X51086500Y19917724D02*
X51086500Y8836500D01*
%TD*%
M02*
