%TF.GenerationSoftware,KiCad,Pcbnew,(6.0.6)*%
%TF.CreationDate,2022-07-25T19:50:51+03:00*%
%TF.ProjectId,USB_Power_Injector_V1.0,5553425f-506f-4776-9572-5f496e6a6563,rev?*%
%TF.SameCoordinates,PX70ea928PY7952f5c*%
%TF.FileFunction,Legend,Top*%
%TF.FilePolarity,Positive*%
%FSLAX46Y46*%
G04 Gerber Fmt 4.6, Leading zero omitted, Abs format (unit mm)*
G04 Created by KiCad (PCBNEW (6.0.6)) date 2022-07-25 19:50:51*
%MOMM*%
%LPD*%
G01*
G04 APERTURE LIST*
%ADD10C,0.200000*%
%ADD11C,0.300000*%
%ADD12C,0.150000*%
%ADD13C,0.120000*%
%ADD14R,1.524000X1.524000*%
%ADD15C,1.524000*%
%ADD16C,3.500000*%
%ADD17C,3.200000*%
%ADD18R,1.700000X1.700000*%
%ADD19C,1.700000*%
G04 APERTURE END LIST*
D10*
X51750000Y22250000D02*
X52750000Y23250000D01*
X49750000Y15500000D02*
X49750000Y12750000D01*
X52750000Y23250000D02*
X52750000Y12750000D01*
X50750000Y13750000D02*
X49750000Y12750000D01*
X15250000Y16500000D02*
G75*
G03*
X15250000Y16500000I-2500000J0D01*
G01*
X35750000Y16500000D02*
X48750000Y16500000D01*
X34250000Y16500000D02*
G75*
G03*
X34250000Y16500000I-2500000J0D01*
G01*
D11*
X11250000Y16500000D02*
X14250000Y16500000D01*
D10*
X49750000Y12750000D02*
X48750000Y13750000D01*
X49749980Y15500000D02*
G75*
G03*
X48750000Y16500000I-1000000J0D01*
G01*
X53750000Y13750000D02*
X52750000Y12750000D01*
X52750000Y12750000D02*
X51750000Y13750000D01*
X52750000Y23250000D02*
X53750000Y22250000D01*
D11*
X30250000Y16500000D02*
X33250000Y16500000D01*
X31750000Y15000000D02*
X31750000Y18000000D01*
X38507619Y17345239D02*
X38507619Y19345239D01*
X39269523Y19345239D01*
X39460000Y19250000D01*
X39555238Y19154762D01*
X39650476Y18964286D01*
X39650476Y18678572D01*
X39555238Y18488096D01*
X39460000Y18392858D01*
X39269523Y18297620D01*
X38507619Y18297620D01*
X40793333Y17345239D02*
X40602857Y17440477D01*
X40507619Y17535715D01*
X40412380Y17726191D01*
X40412380Y18297620D01*
X40507619Y18488096D01*
X40602857Y18583334D01*
X40793333Y18678572D01*
X41079047Y18678572D01*
X41269523Y18583334D01*
X41364761Y18488096D01*
X41460000Y18297620D01*
X41460000Y17726191D01*
X41364761Y17535715D01*
X41269523Y17440477D01*
X41079047Y17345239D01*
X40793333Y17345239D01*
X42126666Y18678572D02*
X42507619Y17345239D01*
X42888571Y18297620D01*
X43269523Y17345239D01*
X43650476Y18678572D01*
X45174285Y17440477D02*
X44983809Y17345239D01*
X44602857Y17345239D01*
X44412380Y17440477D01*
X44317142Y17630953D01*
X44317142Y18392858D01*
X44412380Y18583334D01*
X44602857Y18678572D01*
X44983809Y18678572D01*
X45174285Y18583334D01*
X45269523Y18392858D01*
X45269523Y18202381D01*
X44317142Y18011905D01*
X46126666Y17345239D02*
X46126666Y18678572D01*
X46126666Y18297620D02*
X46221904Y18488096D01*
X46317142Y18583334D01*
X46507619Y18678572D01*
X46698095Y18678572D01*
X55654761Y15095239D02*
X53654761Y15095239D01*
X53654761Y15571429D01*
X53750000Y15857143D01*
X53940476Y16047620D01*
X54130952Y16142858D01*
X54511904Y16238096D01*
X54797619Y16238096D01*
X55178571Y16142858D01*
X55369047Y16047620D01*
X55559523Y15857143D01*
X55654761Y15571429D01*
X55654761Y15095239D01*
X55654761Y17952381D02*
X54607142Y17952381D01*
X54416666Y17857143D01*
X54321428Y17666667D01*
X54321428Y17285715D01*
X54416666Y17095239D01*
X55559523Y17952381D02*
X55654761Y17761905D01*
X55654761Y17285715D01*
X55559523Y17095239D01*
X55369047Y17000000D01*
X55178571Y17000000D01*
X54988095Y17095239D01*
X54892857Y17285715D01*
X54892857Y17761905D01*
X54797619Y17952381D01*
X54321428Y18619048D02*
X54321428Y19380953D01*
X53654761Y18904762D02*
X55369047Y18904762D01*
X55559523Y19000000D01*
X55654761Y19190477D01*
X55654761Y19380953D01*
X55654761Y20904762D02*
X54607142Y20904762D01*
X54416666Y20809524D01*
X54321428Y20619048D01*
X54321428Y20238096D01*
X54416666Y20047620D01*
X55559523Y20904762D02*
X55654761Y20714286D01*
X55654761Y20238096D01*
X55559523Y20047620D01*
X55369047Y19952381D01*
X55178571Y19952381D01*
X54988095Y20047620D01*
X54892857Y20238096D01*
X54892857Y20714286D01*
X54797619Y20904762D01*
X48392857Y24095239D02*
X48392857Y26095239D01*
X48392857Y25142858D02*
X49535714Y25142858D01*
X49535714Y24095239D02*
X49535714Y26095239D01*
X50773809Y24095239D02*
X50583333Y24190477D01*
X50488095Y24285715D01*
X50392857Y24476191D01*
X50392857Y25047620D01*
X50488095Y25238096D01*
X50583333Y25333334D01*
X50773809Y25428572D01*
X51059523Y25428572D01*
X51250000Y25333334D01*
X51345238Y25238096D01*
X51440476Y25047620D01*
X51440476Y24476191D01*
X51345238Y24285715D01*
X51250000Y24190477D01*
X51059523Y24095239D01*
X50773809Y24095239D01*
X52202380Y24190477D02*
X52392857Y24095239D01*
X52773809Y24095239D01*
X52964285Y24190477D01*
X53059523Y24380953D01*
X53059523Y24476191D01*
X52964285Y24666667D01*
X52773809Y24761905D01*
X52488095Y24761905D01*
X52297619Y24857143D01*
X52202380Y25047620D01*
X52202380Y25142858D01*
X52297619Y25333334D01*
X52488095Y25428572D01*
X52773809Y25428572D01*
X52964285Y25333334D01*
X53630952Y25428572D02*
X54392857Y25428572D01*
X53916666Y26095239D02*
X53916666Y24380953D01*
X54011904Y24190477D01*
X54202380Y24095239D01*
X54392857Y24095239D01*
X16630952Y17752858D02*
X17297619Y17752858D01*
X17583333Y16705239D02*
X16630952Y16705239D01*
X16630952Y18705239D01*
X17583333Y18705239D01*
X18250000Y16705239D02*
X19297619Y18038572D01*
X18250000Y18038572D02*
X19297619Y16705239D01*
X19773809Y18038572D02*
X20535714Y18038572D01*
X20059523Y18705239D02*
X20059523Y16990953D01*
X20154761Y16800477D01*
X20345238Y16705239D01*
X20535714Y16705239D01*
X21964285Y16800477D02*
X21773809Y16705239D01*
X21392857Y16705239D01*
X21202380Y16800477D01*
X21107142Y16990953D01*
X21107142Y17752858D01*
X21202380Y17943334D01*
X21392857Y18038572D01*
X21773809Y18038572D01*
X21964285Y17943334D01*
X22059523Y17752858D01*
X22059523Y17562381D01*
X21107142Y17371905D01*
X22916666Y16705239D02*
X22916666Y18038572D01*
X22916666Y17657620D02*
X23011904Y17848096D01*
X23107142Y17943334D01*
X23297619Y18038572D01*
X23488095Y18038572D01*
X24154761Y18038572D02*
X24154761Y16705239D01*
X24154761Y17848096D02*
X24250000Y17943334D01*
X24440476Y18038572D01*
X24726190Y18038572D01*
X24916666Y17943334D01*
X25011904Y17752858D01*
X25011904Y16705239D01*
X26821428Y16705239D02*
X26821428Y17752858D01*
X26726190Y17943334D01*
X26535714Y18038572D01*
X26154761Y18038572D01*
X25964285Y17943334D01*
X26821428Y16800477D02*
X26630952Y16705239D01*
X26154761Y16705239D01*
X25964285Y16800477D01*
X25869047Y16990953D01*
X25869047Y17181429D01*
X25964285Y17371905D01*
X26154761Y17467143D01*
X26630952Y17467143D01*
X26821428Y17562381D01*
X28059523Y16705239D02*
X27869047Y16800477D01*
X27773809Y16990953D01*
X27773809Y18705239D01*
X18297619Y13485239D02*
X18297619Y15485239D01*
X19059523Y15485239D01*
X19250000Y15390000D01*
X19345238Y15294762D01*
X19440476Y15104286D01*
X19440476Y14818572D01*
X19345238Y14628096D01*
X19250000Y14532858D01*
X19059523Y14437620D01*
X18297619Y14437620D01*
X20583333Y13485239D02*
X20392857Y13580477D01*
X20297619Y13675715D01*
X20202380Y13866191D01*
X20202380Y14437620D01*
X20297619Y14628096D01*
X20392857Y14723334D01*
X20583333Y14818572D01*
X20869047Y14818572D01*
X21059523Y14723334D01*
X21154761Y14628096D01*
X21250000Y14437620D01*
X21250000Y13866191D01*
X21154761Y13675715D01*
X21059523Y13580477D01*
X20869047Y13485239D01*
X20583333Y13485239D01*
X21916666Y14818572D02*
X22297619Y13485239D01*
X22678571Y14437620D01*
X23059523Y13485239D01*
X23440476Y14818572D01*
X24964285Y13580477D02*
X24773809Y13485239D01*
X24392857Y13485239D01*
X24202380Y13580477D01*
X24107142Y13770953D01*
X24107142Y14532858D01*
X24202380Y14723334D01*
X24392857Y14818572D01*
X24773809Y14818572D01*
X24964285Y14723334D01*
X25059523Y14532858D01*
X25059523Y14342381D01*
X24107142Y14151905D01*
X25916666Y13485239D02*
X25916666Y14818572D01*
X25916666Y14437620D02*
X26011904Y14628096D01*
X26107142Y14723334D01*
X26297619Y14818572D01*
X26488095Y14818572D01*
X62654761Y5107143D02*
X64273809Y5107143D01*
X64464285Y5202381D01*
X64559523Y5297620D01*
X64654761Y5488096D01*
X64654761Y5869048D01*
X64559523Y6059524D01*
X64464285Y6154762D01*
X64273809Y6250000D01*
X62654761Y6250000D01*
X64559523Y7107143D02*
X64654761Y7392858D01*
X64654761Y7869048D01*
X64559523Y8059524D01*
X64464285Y8154762D01*
X64273809Y8250000D01*
X64083333Y8250000D01*
X63892857Y8154762D01*
X63797619Y8059524D01*
X63702380Y7869048D01*
X63607142Y7488096D01*
X63511904Y7297620D01*
X63416666Y7202381D01*
X63226190Y7107143D01*
X63035714Y7107143D01*
X62845238Y7202381D01*
X62750000Y7297620D01*
X62654761Y7488096D01*
X62654761Y7964286D01*
X62750000Y8250000D01*
X63607142Y9773810D02*
X63702380Y10059524D01*
X63797619Y10154762D01*
X63988095Y10250000D01*
X64273809Y10250000D01*
X64464285Y10154762D01*
X64559523Y10059524D01*
X64654761Y9869048D01*
X64654761Y9107143D01*
X62654761Y9107143D01*
X62654761Y9773810D01*
X62750000Y9964286D01*
X62845238Y10059524D01*
X63035714Y10154762D01*
X63226190Y10154762D01*
X63416666Y10059524D01*
X63511904Y9964286D01*
X63607142Y9773810D01*
X63607142Y9107143D01*
X64654761Y12630953D02*
X62654761Y12630953D01*
X62654761Y13392858D01*
X62750000Y13583334D01*
X62845238Y13678572D01*
X63035714Y13773810D01*
X63321428Y13773810D01*
X63511904Y13678572D01*
X63607142Y13583334D01*
X63702380Y13392858D01*
X63702380Y12630953D01*
X64654761Y14916667D02*
X64559523Y14726191D01*
X64464285Y14630953D01*
X64273809Y14535715D01*
X63702380Y14535715D01*
X63511904Y14630953D01*
X63416666Y14726191D01*
X63321428Y14916667D01*
X63321428Y15202381D01*
X63416666Y15392858D01*
X63511904Y15488096D01*
X63702380Y15583334D01*
X64273809Y15583334D01*
X64464285Y15488096D01*
X64559523Y15392858D01*
X64654761Y15202381D01*
X64654761Y14916667D01*
X63321428Y16250000D02*
X64654761Y16630953D01*
X63702380Y17011905D01*
X64654761Y17392858D01*
X63321428Y17773810D01*
X64559523Y19297620D02*
X64654761Y19107143D01*
X64654761Y18726191D01*
X64559523Y18535715D01*
X64369047Y18440477D01*
X63607142Y18440477D01*
X63416666Y18535715D01*
X63321428Y18726191D01*
X63321428Y19107143D01*
X63416666Y19297620D01*
X63607142Y19392858D01*
X63797619Y19392858D01*
X63988095Y18440477D01*
X64654761Y20250000D02*
X63321428Y20250000D01*
X63702380Y20250000D02*
X63511904Y20345239D01*
X63416666Y20440477D01*
X63321428Y20630953D01*
X63321428Y20821429D01*
X64654761Y23011905D02*
X62654761Y23011905D01*
X63321428Y23964286D02*
X64654761Y23964286D01*
X63511904Y23964286D02*
X63416666Y24059524D01*
X63321428Y24250000D01*
X63321428Y24535715D01*
X63416666Y24726191D01*
X63607142Y24821429D01*
X64654761Y24821429D01*
X63321428Y25773810D02*
X65035714Y25773810D01*
X65226190Y25678572D01*
X65321428Y25488096D01*
X65321428Y25392858D01*
X62654761Y25773810D02*
X62750000Y25678572D01*
X62845238Y25773810D01*
X62750000Y25869048D01*
X62654761Y25773810D01*
X62845238Y25773810D01*
X64559523Y27488096D02*
X64654761Y27297620D01*
X64654761Y26916667D01*
X64559523Y26726191D01*
X64369047Y26630953D01*
X63607142Y26630953D01*
X63416666Y26726191D01*
X63321428Y26916667D01*
X63321428Y27297620D01*
X63416666Y27488096D01*
X63607142Y27583334D01*
X63797619Y27583334D01*
X63988095Y26630953D01*
X64559523Y29297620D02*
X64654761Y29107143D01*
X64654761Y28726191D01*
X64559523Y28535715D01*
X64464285Y28440477D01*
X64273809Y28345239D01*
X63702380Y28345239D01*
X63511904Y28440477D01*
X63416666Y28535715D01*
X63321428Y28726191D01*
X63321428Y29107143D01*
X63416666Y29297620D01*
X63321428Y29869048D02*
X63321428Y30630953D01*
X62654761Y30154762D02*
X64369047Y30154762D01*
X64559523Y30250000D01*
X64654761Y30440477D01*
X64654761Y30630953D01*
X64654761Y31583334D02*
X64559523Y31392858D01*
X64464285Y31297620D01*
X64273809Y31202381D01*
X63702380Y31202381D01*
X63511904Y31297620D01*
X63416666Y31392858D01*
X63321428Y31583334D01*
X63321428Y31869048D01*
X63416666Y32059524D01*
X63511904Y32154762D01*
X63702380Y32250000D01*
X64273809Y32250000D01*
X64464285Y32154762D01*
X64559523Y32059524D01*
X64654761Y31869048D01*
X64654761Y31583334D01*
X64654761Y33107143D02*
X63321428Y33107143D01*
X63702380Y33107143D02*
X63511904Y33202381D01*
X63416666Y33297620D01*
X63321428Y33488096D01*
X63321428Y33678572D01*
X46916666Y10095239D02*
X46916666Y12095239D01*
X47392857Y12095239D01*
X47678571Y12000000D01*
X47869047Y11809524D01*
X47964285Y11619048D01*
X48059523Y11238096D01*
X48059523Y10952381D01*
X47964285Y10571429D01*
X47869047Y10380953D01*
X47678571Y10190477D01*
X47392857Y10095239D01*
X46916666Y10095239D01*
X49678571Y10190477D02*
X49488095Y10095239D01*
X49107142Y10095239D01*
X48916666Y10190477D01*
X48821428Y10380953D01*
X48821428Y11142858D01*
X48916666Y11333334D01*
X49107142Y11428572D01*
X49488095Y11428572D01*
X49678571Y11333334D01*
X49773809Y11142858D01*
X49773809Y10952381D01*
X48821428Y10761905D01*
X50440476Y11428572D02*
X50916666Y10095239D01*
X51392857Y11428572D01*
X52154761Y10095239D02*
X52154761Y11428572D01*
X52154761Y12095239D02*
X52059523Y12000000D01*
X52154761Y11904762D01*
X52250000Y12000000D01*
X52154761Y12095239D01*
X52154761Y11904762D01*
X53964285Y10190477D02*
X53773809Y10095239D01*
X53392857Y10095239D01*
X53202380Y10190477D01*
X53107142Y10285715D01*
X53011904Y10476191D01*
X53011904Y11047620D01*
X53107142Y11238096D01*
X53202380Y11333334D01*
X53392857Y11428572D01*
X53773809Y11428572D01*
X53964285Y11333334D01*
X55583333Y10190477D02*
X55392857Y10095239D01*
X55011904Y10095239D01*
X54821428Y10190477D01*
X54726190Y10380953D01*
X54726190Y11142858D01*
X54821428Y11333334D01*
X55011904Y11428572D01*
X55392857Y11428572D01*
X55583333Y11333334D01*
X55678571Y11142858D01*
X55678571Y10952381D01*
X54726190Y10761905D01*
D12*
%TO.C,J4*%
X50916666Y5620120D02*
X50916666Y4905834D01*
X50869047Y4762977D01*
X50773809Y4667739D01*
X50630952Y4620120D01*
X50535714Y4620120D01*
X51821428Y5286786D02*
X51821428Y4620120D01*
X51583333Y5667739D02*
X51345238Y4953453D01*
X51964285Y4953453D01*
%TO.C,J2*%
X8966666Y24847620D02*
X8966666Y24133334D01*
X8919047Y23990477D01*
X8823809Y23895239D01*
X8680952Y23847620D01*
X8585714Y23847620D01*
X9395238Y24752381D02*
X9442857Y24800000D01*
X9538095Y24847620D01*
X9776190Y24847620D01*
X9871428Y24800000D01*
X9919047Y24752381D01*
X9966666Y24657143D01*
X9966666Y24561905D01*
X9919047Y24419048D01*
X9347619Y23847620D01*
X9966666Y23847620D01*
%TO.C,J3*%
X50916666Y33925120D02*
X50916666Y33210834D01*
X50869047Y33067977D01*
X50773809Y32972739D01*
X50630952Y32925120D01*
X50535714Y32925120D01*
X51297619Y33925120D02*
X51916666Y33925120D01*
X51583333Y33544167D01*
X51726190Y33544167D01*
X51821428Y33496548D01*
X51869047Y33448929D01*
X51916666Y33353691D01*
X51916666Y33115596D01*
X51869047Y33020358D01*
X51821428Y32972739D01*
X51726190Y32925120D01*
X51440476Y32925120D01*
X51345238Y32972739D01*
X51297619Y33020358D01*
%TO.C,J1*%
X27916666Y24797620D02*
X27916666Y24083334D01*
X27869047Y23940477D01*
X27773809Y23845239D01*
X27630952Y23797620D01*
X27535714Y23797620D01*
X28916666Y23797620D02*
X28345238Y23797620D01*
X28630952Y23797620D02*
X28630952Y24797620D01*
X28535714Y24654762D01*
X28440476Y24559524D01*
X28345238Y24511905D01*
%TO.C,G\u002A\u002A\u002A*%
G36*
X30864676Y530942D02*
G01*
X30884477Y604626D01*
X30896773Y643551D01*
X30948196Y777516D01*
X31011308Y905175D01*
X31085367Y1025906D01*
X31169633Y1139091D01*
X31263365Y1244110D01*
X31365825Y1340343D01*
X31476270Y1427170D01*
X31593961Y1503972D01*
X31718158Y1570130D01*
X31848119Y1625022D01*
X31983106Y1668030D01*
X32122377Y1698534D01*
X32165123Y1705189D01*
X32226856Y1713896D01*
X32228587Y3225980D01*
X32230317Y4738063D01*
X30613226Y6355165D01*
X28996136Y7972266D01*
X15534742Y7972266D01*
X15534742Y8500432D01*
X29217609Y8500432D01*
X30982886Y6730043D01*
X32748164Y4959653D01*
X32751593Y3319868D01*
X32755023Y1680083D01*
X32837334Y1655290D01*
X32884890Y1640584D01*
X32925195Y1627036D01*
X32962014Y1613122D01*
X32999114Y1597320D01*
X33040259Y1578104D01*
X33089216Y1553950D01*
X33095471Y1550809D01*
X33222344Y1479513D01*
X33340938Y1397643D01*
X33450744Y1305929D01*
X33551251Y1205099D01*
X33641949Y1095882D01*
X33722328Y979005D01*
X33791879Y855198D01*
X33850090Y725188D01*
X33896452Y589705D01*
X33930455Y449477D01*
X33948658Y332311D01*
X33952832Y285751D01*
X33955956Y227143D01*
X33957970Y158125D01*
X33958809Y80331D01*
X33958831Y64986D01*
X33958831Y-115374D01*
X32658201Y-110561D01*
X31357572Y-105749D01*
X31362263Y-129164D01*
X31391837Y-242383D01*
X31433929Y-351163D01*
X31487776Y-454496D01*
X31552612Y-551376D01*
X31627674Y-640794D01*
X31712198Y-721744D01*
X31805420Y-793218D01*
X31906575Y-854208D01*
X31915956Y-859105D01*
X32022467Y-906416D01*
X32133144Y-941112D01*
X32246750Y-963185D01*
X32362044Y-972630D01*
X32477790Y-969440D01*
X32592748Y-953608D01*
X32705680Y-925129D01*
X32815347Y-883994D01*
X32857912Y-864051D01*
X32955595Y-808104D01*
X33047478Y-740696D01*
X33132122Y-663307D01*
X33208085Y-577417D01*
X33273928Y-484506D01*
X33328210Y-386056D01*
X33333158Y-375506D01*
X33344355Y-351514D01*
X33353337Y-332793D01*
X33358601Y-322456D01*
X33359252Y-321430D01*
X33365917Y-323322D01*
X33383893Y-329845D01*
X33411788Y-340456D01*
X33448209Y-354614D01*
X33491762Y-371776D01*
X33541053Y-391399D01*
X33594690Y-412942D01*
X33604514Y-416907D01*
X33847412Y-515014D01*
X33837319Y-539575D01*
X33824029Y-569439D01*
X33805682Y-607320D01*
X33784238Y-649450D01*
X33761658Y-692059D01*
X33739902Y-731376D01*
X33720933Y-763634D01*
X33719966Y-765198D01*
X33640005Y-881322D01*
X33549298Y-989796D01*
X33448905Y-1089829D01*
X33339890Y-1180633D01*
X33223314Y-1261419D01*
X33100240Y-1331398D01*
X32971731Y-1389782D01*
X32838848Y-1435782D01*
X32803597Y-1445646D01*
X32732240Y-1463437D01*
X32666970Y-1476818D01*
X32603472Y-1486371D01*
X32537428Y-1492676D01*
X32464522Y-1496315D01*
X32418917Y-1497407D01*
X32337792Y-1497766D01*
X32269271Y-1495931D01*
X32213767Y-1491914D01*
X32200522Y-1490388D01*
X32056979Y-1465408D01*
X31917501Y-1427686D01*
X31782849Y-1377754D01*
X31653782Y-1316145D01*
X31531061Y-1243392D01*
X31415445Y-1160026D01*
X31307694Y-1066581D01*
X31208569Y-963590D01*
X31118829Y-851583D01*
X31039234Y-731095D01*
X30990055Y-642176D01*
X30933992Y-521055D01*
X30889268Y-398539D01*
X30855644Y-273277D01*
X30832881Y-143914D01*
X30820739Y-9099D01*
X30818979Y132523D01*
X30827126Y279558D01*
X30836698Y372057D01*
X30843866Y420243D01*
X31379489Y420243D01*
X32032959Y418458D01*
X32136579Y418167D01*
X32243459Y417851D01*
X32351835Y417517D01*
X32459947Y417170D01*
X32566030Y416816D01*
X32668323Y416463D01*
X32765063Y416115D01*
X32854488Y415778D01*
X32934835Y415460D01*
X33004342Y415165D01*
X33041944Y414994D01*
X33397458Y413314D01*
X33392733Y435607D01*
X33388126Y452159D01*
X33379927Y477014D01*
X33369629Y505731D01*
X33365607Y516388D01*
X33327649Y605137D01*
X33284424Y685364D01*
X33233797Y760325D01*
X33173633Y833276D01*
X33122451Y887146D01*
X33057961Y947931D01*
X32995267Y998719D01*
X32930766Y1042120D01*
X32860853Y1080747D01*
X32843590Y1089249D01*
X32734620Y1134601D01*
X32623823Y1166869D01*
X32512104Y1186415D01*
X32400366Y1193601D01*
X32289513Y1188787D01*
X32180447Y1172334D01*
X32074072Y1144604D01*
X31971293Y1105958D01*
X31873011Y1056757D01*
X31780131Y997363D01*
X31693556Y928135D01*
X31614190Y849437D01*
X31542936Y761628D01*
X31480697Y665070D01*
X31428377Y560124D01*
X31410623Y516388D01*
X31400078Y487915D01*
X31391097Y462244D01*
X31385121Y443552D01*
X31383920Y439071D01*
X31379489Y420243D01*
X30843866Y420243D01*
X30848982Y454635D01*
X30864676Y530942D01*
G37*
G36*
X21461180Y769998D02*
G01*
X22510653Y769998D01*
X22510653Y241831D01*
X21459054Y241831D01*
X21463210Y137227D01*
X21474032Y13414D01*
X21496532Y-103520D01*
X21530951Y-214275D01*
X21577531Y-319552D01*
X21636513Y-420050D01*
X21674225Y-473403D01*
X21751071Y-564560D01*
X21836806Y-645383D01*
X21930981Y-715591D01*
X22033146Y-774901D01*
X22142854Y-823031D01*
X22259655Y-859697D01*
X22304874Y-870366D01*
X22334109Y-876200D01*
X22361532Y-880407D01*
X22390362Y-883232D01*
X22423818Y-884923D01*
X22465119Y-885726D01*
X22507224Y-885897D01*
X22557387Y-885637D01*
X22597059Y-884694D01*
X22629457Y-882819D01*
X22657801Y-879767D01*
X22685311Y-875289D01*
X22709573Y-870366D01*
X22827999Y-838172D01*
X22939572Y-794499D01*
X23043720Y-739999D01*
X23139871Y-675324D01*
X23227453Y-601128D01*
X23305896Y-518062D01*
X23374626Y-426779D01*
X23433073Y-327932D01*
X23480664Y-222173D01*
X23516828Y-110156D01*
X23540994Y7467D01*
X23550197Y89212D01*
X23555037Y152660D01*
X24082149Y152660D01*
X24077946Y92642D01*
X24065507Y-36152D01*
X24046602Y-155081D01*
X24020577Y-266711D01*
X23986777Y-373604D01*
X23944545Y-478326D01*
X23917105Y-536700D01*
X23845797Y-666085D01*
X23763799Y-787008D01*
X23671550Y-899035D01*
X23569487Y-1001731D01*
X23458045Y-1094662D01*
X23337661Y-1177393D01*
X23208773Y-1249488D01*
X23193154Y-1257210D01*
X23072813Y-1310431D01*
X22952518Y-1352186D01*
X22828144Y-1383765D01*
X22733581Y-1400951D01*
X22695612Y-1405540D01*
X22647976Y-1409349D01*
X22594159Y-1412281D01*
X22537644Y-1414237D01*
X22481915Y-1415119D01*
X22430458Y-1414829D01*
X22386757Y-1413268D01*
X22362954Y-1411400D01*
X22213528Y-1388955D01*
X22069413Y-1353975D01*
X21930846Y-1306545D01*
X21798065Y-1246750D01*
X21671309Y-1174674D01*
X21638071Y-1153067D01*
X21519304Y-1065652D01*
X21410395Y-968916D01*
X21311692Y-863429D01*
X21223543Y-749758D01*
X21146296Y-628470D01*
X21080300Y-500133D01*
X21025902Y-365316D01*
X20983451Y-224585D01*
X20953295Y-78510D01*
X20945312Y-23136D01*
X20944244Y-12153D01*
X20943259Y3721D01*
X20942354Y24977D01*
X20941527Y52110D01*
X20940774Y85612D01*
X20940093Y125975D01*
X20939481Y173693D01*
X20938935Y229258D01*
X20938452Y293164D01*
X20938029Y365903D01*
X20937662Y447969D01*
X20937351Y539853D01*
X20937090Y642050D01*
X20936878Y755052D01*
X20936712Y879351D01*
X20936588Y1015441D01*
X20936504Y1163815D01*
X20936457Y1324965D01*
X20936443Y1483365D01*
X20936443Y2920389D01*
X21198812Y2922186D01*
X21461180Y2923982D01*
X21461180Y769998D01*
G37*
G36*
X20554053Y151027D02*
G01*
X20552322Y-1318660D01*
X20031015Y-1318660D01*
X20029171Y-1162469D01*
X20027327Y-1006277D01*
X19970867Y-1052243D01*
X19864934Y-1130523D01*
X19749685Y-1201056D01*
X19627892Y-1262475D01*
X19502326Y-1313411D01*
X19375760Y-1352499D01*
X19348515Y-1359263D01*
X19257566Y-1377477D01*
X19160376Y-1390913D01*
X19061297Y-1399236D01*
X18964683Y-1402107D01*
X18874886Y-1399190D01*
X18854495Y-1397560D01*
X18709700Y-1377828D01*
X18569439Y-1345608D01*
X18434305Y-1301480D01*
X18304892Y-1246024D01*
X18181794Y-1179821D01*
X18065605Y-1103451D01*
X17956917Y-1017494D01*
X17856326Y-922531D01*
X17764424Y-819141D01*
X17681805Y-707906D01*
X17609063Y-589406D01*
X17546791Y-464220D01*
X17495584Y-332929D01*
X17456034Y-196113D01*
X17428736Y-54353D01*
X17421424Y3200D01*
X17420174Y22023D01*
X17419033Y54242D01*
X17418006Y99535D01*
X17417095Y157579D01*
X17416303Y228052D01*
X17415632Y310632D01*
X17415086Y404996D01*
X17414667Y510823D01*
X17414377Y627789D01*
X17414221Y755573D01*
X17414191Y845261D01*
X17414191Y1620714D01*
X17676559Y1618918D01*
X17938928Y1617122D01*
X17942591Y814583D01*
X17946253Y12045D01*
X17964269Y-59978D01*
X17985819Y-137391D01*
X18010190Y-206864D01*
X18039481Y-274157D01*
X18050462Y-296624D01*
X18109167Y-399241D01*
X18177410Y-492725D01*
X18254251Y-576764D01*
X18338752Y-651047D01*
X18429972Y-715260D01*
X18526971Y-769093D01*
X18628811Y-812233D01*
X18734552Y-844369D01*
X18843254Y-865187D01*
X18953978Y-874377D01*
X19065785Y-871626D01*
X19177734Y-856622D01*
X19288886Y-829053D01*
X19398302Y-788608D01*
X19453713Y-762629D01*
X19553321Y-704925D01*
X19646513Y-635978D01*
X19731993Y-557125D01*
X19808463Y-469705D01*
X19874628Y-375057D01*
X19929190Y-274519D01*
X19931671Y-269187D01*
X19968445Y-178017D01*
X19999053Y-77965D01*
X20008916Y-37903D01*
X20011150Y-27942D01*
X20013150Y-18024D01*
X20014932Y-7354D01*
X20016514Y4864D01*
X20017911Y19425D01*
X20019143Y37126D01*
X20020224Y58761D01*
X20021173Y85126D01*
X20022007Y117017D01*
X20022742Y155230D01*
X20023395Y200560D01*
X20023984Y253803D01*
X20024525Y315754D01*
X20025035Y387209D01*
X20025532Y468963D01*
X20026033Y561813D01*
X20026554Y666553D01*
X20027113Y783980D01*
X20027288Y821442D01*
X20031015Y1617122D01*
X20555783Y1620714D01*
X20554053Y151027D01*
G37*
G36*
X24870254Y-1322090D02*
G01*
X24609385Y-1322090D01*
X24539345Y-1321992D01*
X24481976Y-1321676D01*
X24436230Y-1321108D01*
X24401059Y-1320254D01*
X24375418Y-1319080D01*
X24358259Y-1317551D01*
X24348535Y-1315635D01*
X24345261Y-1313516D01*
X24345005Y-1306050D01*
X24344766Y-1285392D01*
X24344544Y-1252067D01*
X24344339Y-1206602D01*
X24344152Y-1149523D01*
X24343983Y-1081356D01*
X24343832Y-1002627D01*
X24343700Y-913862D01*
X24343586Y-815587D01*
X24343493Y-708328D01*
X24343419Y-592612D01*
X24343365Y-468965D01*
X24343332Y-337912D01*
X24343320Y-199979D01*
X24343329Y-55694D01*
X24343360Y94418D01*
X24343413Y249832D01*
X24343489Y410020D01*
X24343587Y574457D01*
X24343708Y742617D01*
X24343761Y807724D01*
X24345517Y2920389D01*
X24607885Y2922186D01*
X24870254Y2923982D01*
X24870254Y-1322090D01*
G37*
G36*
X26355293Y-1318660D02*
G01*
X26096171Y-1320458D01*
X26026779Y-1320847D01*
X25970016Y-1320939D01*
X25924796Y-1320706D01*
X25890031Y-1320121D01*
X25864634Y-1319153D01*
X25847519Y-1317775D01*
X25837599Y-1315959D01*
X25833787Y-1313676D01*
X25833755Y-1313598D01*
X25833387Y-1305855D01*
X25833054Y-1285156D01*
X25832757Y-1252266D01*
X25832498Y-1207948D01*
X25832277Y-1152964D01*
X25832095Y-1088080D01*
X25831954Y-1014058D01*
X25831854Y-931661D01*
X25831798Y-841654D01*
X25831785Y-744800D01*
X25831818Y-641861D01*
X25831897Y-533602D01*
X25832024Y-420786D01*
X25832199Y-304176D01*
X25832224Y-289765D01*
X25833986Y725412D01*
X26355293Y725412D01*
X26355293Y-1318660D01*
G37*
G36*
X29017921Y1695683D02*
G01*
X29157843Y1677716D01*
X29295010Y1647399D01*
X29428611Y1605071D01*
X29557833Y1551071D01*
X29681864Y1485741D01*
X29799893Y1409419D01*
X29911107Y1322445D01*
X30014694Y1225159D01*
X30109842Y1117901D01*
X30195739Y1001010D01*
X30196555Y999784D01*
X30268533Y881281D01*
X30328765Y759473D01*
X30377992Y632497D01*
X30416953Y498487D01*
X30441687Y382447D01*
X30443948Y369781D01*
X30445971Y357490D01*
X30447773Y344771D01*
X30449368Y330819D01*
X30450772Y314832D01*
X30452001Y296004D01*
X30453070Y273533D01*
X30453994Y246613D01*
X30454790Y214443D01*
X30455472Y176217D01*
X30456055Y131131D01*
X30456557Y78383D01*
X30456991Y17168D01*
X30457373Y-53318D01*
X30457719Y-133879D01*
X30458044Y-225318D01*
X30458364Y-328440D01*
X30458694Y-444047D01*
X30458880Y-511059D01*
X30461115Y-1322253D01*
X30198482Y-1320457D01*
X29935849Y-1318660D01*
X29932123Y-519551D01*
X29931550Y-397871D01*
X29931019Y-289117D01*
X29930511Y-192498D01*
X29930012Y-107221D01*
X29929503Y-32493D01*
X29928970Y32476D01*
X29928394Y88479D01*
X29927759Y136309D01*
X29927049Y176757D01*
X29926248Y210616D01*
X29925338Y238677D01*
X29924302Y261732D01*
X29923126Y280575D01*
X29921791Y295996D01*
X29920281Y308789D01*
X29918579Y319744D01*
X29916670Y329655D01*
X29914535Y339313D01*
X29914078Y341291D01*
X29879965Y459808D01*
X29834454Y571562D01*
X29778111Y675928D01*
X29711504Y772281D01*
X29635199Y859994D01*
X29549763Y938441D01*
X29455764Y1006997D01*
X29353767Y1065035D01*
X29244341Y1111930D01*
X29203437Y1125900D01*
X29145823Y1142930D01*
X29092550Y1155344D01*
X29039539Y1163726D01*
X28982710Y1168662D01*
X28917982Y1170737D01*
X28889805Y1170898D01*
X28820905Y1169776D01*
X28761490Y1166022D01*
X28707479Y1159049D01*
X28654793Y1148273D01*
X28599351Y1133108D01*
X28576174Y1125900D01*
X28464141Y1083127D01*
X28359368Y1029002D01*
X28262415Y964143D01*
X28173845Y889171D01*
X28094216Y804704D01*
X28024092Y711361D01*
X27964031Y609762D01*
X27914596Y500526D01*
X27876347Y384273D01*
X27865532Y341291D01*
X27863351Y331589D01*
X27861398Y321792D01*
X27859656Y311110D01*
X27858109Y298750D01*
X27856740Y283920D01*
X27855533Y265828D01*
X27854471Y243681D01*
X27853537Y216689D01*
X27852715Y184058D01*
X27851988Y144996D01*
X27851339Y98712D01*
X27850753Y44413D01*
X27850212Y-18693D01*
X27849700Y-91398D01*
X27849200Y-174493D01*
X27848695Y-268772D01*
X27848170Y-375027D01*
X27847607Y-494048D01*
X27847488Y-519551D01*
X27843762Y-1318660D01*
X27586047Y-1320456D01*
X27527884Y-1320741D01*
X27474066Y-1320772D01*
X27426129Y-1320567D01*
X27385607Y-1320142D01*
X27354035Y-1319513D01*
X27332946Y-1318698D01*
X27323875Y-1317714D01*
X27323679Y-1317598D01*
X27323232Y-1310392D01*
X27322797Y-1290098D01*
X27322375Y-1257346D01*
X27321969Y-1212768D01*
X27321581Y-1156993D01*
X27321212Y-1090654D01*
X27320865Y-1014379D01*
X27320542Y-928801D01*
X27320244Y-834549D01*
X27319974Y-732254D01*
X27319734Y-622547D01*
X27319525Y-506059D01*
X27319350Y-383419D01*
X27319210Y-255260D01*
X27319108Y-122210D01*
X27319046Y15098D01*
X27319025Y153885D01*
X27319025Y1620714D01*
X27581393Y1618918D01*
X27843762Y1617122D01*
X27845606Y1460714D01*
X27847451Y1304307D01*
X27886762Y1338247D01*
X27982035Y1412565D01*
X28087703Y1480575D01*
X28201474Y1541188D01*
X28321057Y1593317D01*
X28444159Y1635872D01*
X28568489Y1667766D01*
X28589749Y1672082D01*
X28733062Y1693206D01*
X28876057Y1700959D01*
X29017921Y1695683D01*
G37*
G36*
X13977600Y509306D02*
G01*
X14002257Y652690D01*
X14039980Y791915D01*
X14090734Y926875D01*
X14154486Y1057465D01*
X14220758Y1167837D01*
X14305050Y1284335D01*
X14399265Y1392273D01*
X14502474Y1491011D01*
X14613749Y1579909D01*
X14732162Y1658324D01*
X14856784Y1725617D01*
X14986688Y1781145D01*
X15120944Y1824269D01*
X15198636Y1842964D01*
X15270659Y1858218D01*
X15272406Y2555149D01*
X15274153Y3252079D01*
X15234680Y3260002D01*
X15090765Y3295706D01*
X14952606Y3343845D01*
X14820447Y3404289D01*
X14694532Y3476910D01*
X14575106Y3561578D01*
X14462411Y3658167D01*
X14441614Y3678016D01*
X14353815Y3769386D01*
X14277147Y3862862D01*
X14209187Y3961783D01*
X14147509Y4069486D01*
X14124970Y4113908D01*
X14066665Y4247908D01*
X14021334Y4385768D01*
X13989070Y4526626D01*
X13969967Y4669620D01*
X13964424Y4806286D01*
X14493040Y4806286D01*
X14494757Y4731530D01*
X14500692Y4662382D01*
X14505047Y4632668D01*
X14531693Y4516158D01*
X14570438Y4405256D01*
X14620566Y4300662D01*
X14681365Y4203076D01*
X14752122Y4113198D01*
X14832123Y4031727D01*
X14920656Y3959363D01*
X15017008Y3896807D01*
X15120464Y3844757D01*
X15230312Y3803915D01*
X15345839Y3774979D01*
X15386212Y3767989D01*
X15415207Y3765132D01*
X15454407Y3763531D01*
X15500647Y3763098D01*
X15550760Y3763744D01*
X15601583Y3765381D01*
X15649949Y3767920D01*
X15692694Y3771272D01*
X15726651Y3775350D01*
X15740521Y3777889D01*
X15860441Y3811104D01*
X15973131Y3855802D01*
X16078232Y3911738D01*
X16175387Y3978671D01*
X16264240Y4056359D01*
X16344433Y4144558D01*
X16407440Y4230501D01*
X16465497Y4330356D01*
X16512732Y4438171D01*
X16549307Y4554342D01*
X16561231Y4604348D01*
X16565881Y4628670D01*
X16569285Y4654449D01*
X16571605Y4684279D01*
X16572998Y4720756D01*
X16573626Y4766474D01*
X16573693Y4806698D01*
X16573477Y4856629D01*
X16572853Y4895670D01*
X16571586Y4926647D01*
X16569442Y4952387D01*
X16566187Y4975717D01*
X16561584Y4999463D01*
X16555462Y5026195D01*
X16520442Y5145014D01*
X16474072Y5256565D01*
X16416878Y5360319D01*
X16349389Y5455746D01*
X16272133Y5542317D01*
X16185637Y5619503D01*
X16090429Y5686774D01*
X15987037Y5743601D01*
X15875989Y5789453D01*
X15761099Y5823029D01*
X15696249Y5834876D01*
X15622803Y5842363D01*
X15545211Y5845381D01*
X15467921Y5843817D01*
X15395382Y5837561D01*
X15364142Y5832958D01*
X15247922Y5806356D01*
X15137118Y5767595D01*
X15032476Y5717390D01*
X14934744Y5656455D01*
X14844666Y5585505D01*
X14762990Y5505254D01*
X14690460Y5416417D01*
X14627824Y5319708D01*
X14575827Y5215841D01*
X14535215Y5105531D01*
X14512305Y5017271D01*
X14501902Y4953850D01*
X14495451Y4881957D01*
X14493040Y4806286D01*
X13964424Y4806286D01*
X13964116Y4813890D01*
X13971613Y4958574D01*
X13992550Y5102811D01*
X14009555Y5180530D01*
X14050136Y5317484D01*
X14103358Y5449914D01*
X14168660Y5577031D01*
X14245482Y5698044D01*
X14333265Y5812166D01*
X14431447Y5918605D01*
X14539469Y6016573D01*
X14656771Y6105281D01*
X14673899Y6116914D01*
X14730460Y6151993D01*
X14796221Y6188112D01*
X14867005Y6223253D01*
X14938640Y6255398D01*
X15006951Y6282529D01*
X15040872Y6294346D01*
X15181882Y6333639D01*
X15323367Y6359578D01*
X15464597Y6372474D01*
X15604840Y6372641D01*
X15743364Y6360388D01*
X15879436Y6336029D01*
X16012326Y6299874D01*
X16141302Y6252236D01*
X16265631Y6193426D01*
X16384583Y6123755D01*
X16497424Y6043536D01*
X16603424Y5953079D01*
X16701850Y5852697D01*
X16791972Y5742701D01*
X16873056Y5623404D01*
X16944372Y5495116D01*
X16951519Y5480612D01*
X17007776Y5349571D01*
X17051310Y5214430D01*
X17082128Y5076209D01*
X17100235Y4935927D01*
X17105638Y4794603D01*
X17098341Y4653255D01*
X17078352Y4512904D01*
X17045675Y4374567D01*
X17000316Y4239264D01*
X16943724Y4110911D01*
X16886559Y4004499D01*
X16825075Y3907790D01*
X16756732Y3817304D01*
X16678991Y3729557D01*
X16627845Y3677814D01*
X16517745Y3579778D01*
X16400203Y3493196D01*
X16275687Y3418316D01*
X16144663Y3355384D01*
X16007601Y3304646D01*
X15864968Y3266350D01*
X15834804Y3260002D01*
X15795331Y3252079D01*
X15797078Y2555149D01*
X15798825Y1858218D01*
X15870848Y1842964D01*
X16005765Y1807473D01*
X16137608Y1759115D01*
X16265227Y1698605D01*
X16387474Y1626659D01*
X16503200Y1543992D01*
X16611257Y1451320D01*
X16710495Y1349359D01*
X16762487Y1287594D01*
X16848063Y1169447D01*
X16921723Y1044998D01*
X16983264Y915086D01*
X17032484Y780547D01*
X17069181Y642220D01*
X17093153Y500941D01*
X17104198Y357549D01*
X17102115Y212880D01*
X17086700Y67772D01*
X17074056Y-4057D01*
X17039489Y-143053D01*
X16992646Y-276880D01*
X16934198Y-404916D01*
X16864813Y-526535D01*
X16785160Y-641113D01*
X16695908Y-748027D01*
X16597727Y-846652D01*
X16491284Y-936364D01*
X16377251Y-1016540D01*
X16256294Y-1086554D01*
X16129084Y-1145784D01*
X15996290Y-1193605D01*
X15858581Y-1229392D01*
X15738455Y-1249846D01*
X15690076Y-1254553D01*
X15632042Y-1257694D01*
X15568128Y-1259276D01*
X15502113Y-1259304D01*
X15437771Y-1257785D01*
X15378880Y-1254723D01*
X15329217Y-1250125D01*
X15322104Y-1249210D01*
X15181074Y-1223382D01*
X15044414Y-1184972D01*
X14912794Y-1134609D01*
X14786882Y-1072919D01*
X14667349Y-1000532D01*
X14554863Y-918076D01*
X14450094Y-826178D01*
X14353711Y-725467D01*
X14266383Y-616571D01*
X14188780Y-500117D01*
X14121571Y-376735D01*
X14065425Y-247052D01*
X14021012Y-111696D01*
X13995241Y-4057D01*
X13977965Y97509D01*
X13968004Y196920D01*
X13964911Y299788D01*
X13965061Y308047D01*
X14493236Y308047D01*
X14493451Y251424D01*
X14495882Y201413D01*
X14498416Y176668D01*
X14520374Y60011D01*
X14554712Y-51728D01*
X14600738Y-157790D01*
X14657756Y-257415D01*
X14725075Y-349843D01*
X14802000Y-434313D01*
X14887838Y-510066D01*
X14981896Y-576341D01*
X15083480Y-632379D01*
X15191898Y-677420D01*
X15306455Y-710703D01*
X15308385Y-711147D01*
X15403465Y-728715D01*
X15495552Y-736497D01*
X15590307Y-734865D01*
X15627343Y-731932D01*
X15746248Y-714047D01*
X15860963Y-683376D01*
X15970652Y-640296D01*
X16074475Y-585183D01*
X16171596Y-518412D01*
X16247146Y-453815D01*
X16329538Y-367689D01*
X16400179Y-275281D01*
X16459441Y-175919D01*
X16507699Y-68932D01*
X16545324Y46353D01*
X16561181Y111505D01*
X16567046Y148637D01*
X16571241Y196013D01*
X16573762Y250261D01*
X16574606Y308008D01*
X16573769Y365881D01*
X16571248Y420507D01*
X16567038Y468514D01*
X16561592Y504336D01*
X16531414Y620079D01*
X16489253Y730089D01*
X16435845Y833638D01*
X16371929Y929997D01*
X16298244Y1018436D01*
X16215528Y1098226D01*
X16124519Y1168637D01*
X16025955Y1228942D01*
X15920575Y1278411D01*
X15809116Y1316314D01*
X15718047Y1337452D01*
X15673688Y1343534D01*
X15619741Y1347529D01*
X15560176Y1349438D01*
X15498963Y1349261D01*
X15440072Y1346997D01*
X15387474Y1342648D01*
X15351437Y1337452D01*
X15235560Y1309086D01*
X15125211Y1268586D01*
X15021133Y1216673D01*
X14924067Y1154068D01*
X14834753Y1081494D01*
X14753932Y999671D01*
X14682345Y909322D01*
X14620735Y811167D01*
X14569840Y705928D01*
X14530404Y594328D01*
X14511463Y519633D01*
X14504352Y477073D01*
X14498841Y424922D01*
X14495084Y367229D01*
X14493236Y308047D01*
X13965061Y308047D01*
X13966041Y361869D01*
X13977600Y509306D01*
G37*
G36*
X25238444Y2088133D02*
G01*
X25262135Y2193200D01*
X25280961Y2250561D01*
X25323730Y2347812D01*
X25377987Y2438511D01*
X25442704Y2521726D01*
X25516854Y2596527D01*
X25599411Y2661981D01*
X25689347Y2717157D01*
X25785635Y2761123D01*
X25875825Y2790067D01*
X25981373Y2810660D01*
X26086716Y2818026D01*
X26190828Y2812634D01*
X26292684Y2794952D01*
X26391258Y2765448D01*
X26485526Y2724589D01*
X26574462Y2672843D01*
X26657040Y2610679D01*
X26732236Y2538565D01*
X26799023Y2456968D01*
X26856377Y2366356D01*
X26872789Y2335095D01*
X26912250Y2241246D01*
X26940196Y2141790D01*
X26956477Y2038805D01*
X26960942Y1934368D01*
X26953441Y1830555D01*
X26933824Y1729443D01*
X26919997Y1682285D01*
X26880260Y1582609D01*
X26829075Y1489647D01*
X26767370Y1404198D01*
X26696076Y1327066D01*
X26616123Y1259051D01*
X26528440Y1200954D01*
X26433959Y1153576D01*
X26333609Y1117719D01*
X26239501Y1096039D01*
X26193475Y1090362D01*
X26138860Y1087180D01*
X26080428Y1086488D01*
X26022949Y1088277D01*
X25971195Y1092540D01*
X25943735Y1096483D01*
X25840094Y1121728D01*
X25740468Y1159647D01*
X25646210Y1209456D01*
X25558677Y1270371D01*
X25479221Y1341608D01*
X25433743Y1391647D01*
X25368414Y1479864D01*
X25315259Y1573533D01*
X25274462Y1671639D01*
X25246201Y1773167D01*
X25230657Y1877101D01*
X25228831Y1949798D01*
X25755104Y1949798D01*
X25761196Y1883285D01*
X25779698Y1821974D01*
X25810952Y1765056D01*
X25855299Y1711724D01*
X25855650Y1711368D01*
X25907778Y1667884D01*
X25965903Y1636360D01*
X26028695Y1617160D01*
X26094823Y1610646D01*
X26162955Y1617183D01*
X26183810Y1621799D01*
X26233211Y1640081D01*
X26282547Y1668885D01*
X26328401Y1705483D01*
X26367357Y1747152D01*
X26395866Y1790907D01*
X26419049Y1849816D01*
X26431908Y1912682D01*
X26434006Y1975790D01*
X26424909Y2035421D01*
X26424640Y2036442D01*
X26401354Y2098813D01*
X26367463Y2154072D01*
X26324494Y2201297D01*
X26273979Y2239562D01*
X26217446Y2267945D01*
X26156426Y2285521D01*
X26092448Y2291367D01*
X26027041Y2284559D01*
X26017341Y2282422D01*
X25960318Y2263856D01*
X25909495Y2235728D01*
X25861194Y2195995D01*
X25860682Y2195504D01*
X25815833Y2143378D01*
X25782986Y2085076D01*
X25762599Y2021665D01*
X25755131Y1954215D01*
X25755104Y1949798D01*
X25228831Y1949798D01*
X25228011Y1982428D01*
X25238444Y2088133D01*
G37*
G36*
X10550431Y4939739D02*
G01*
X10549879Y5037099D01*
X10549399Y5148054D01*
X10548991Y5272620D01*
X10548655Y5410815D01*
X10548391Y5562656D01*
X10548199Y5728160D01*
X10548079Y5907345D01*
X10548030Y6100228D01*
X10548029Y6137132D01*
X10548029Y7567567D01*
X11076137Y7567567D01*
X11077881Y6775784D01*
X11079625Y5984000D01*
X11153230Y6041342D01*
X11273269Y6126322D01*
X11399449Y6199231D01*
X11531038Y6259818D01*
X11667307Y6307829D01*
X11807525Y6343014D01*
X11950961Y6365121D01*
X12096884Y6373897D01*
X12118809Y6374048D01*
X12263752Y6367349D01*
X12405839Y6347560D01*
X12544341Y6315144D01*
X12678530Y6270564D01*
X12807677Y6214283D01*
X12931053Y6146763D01*
X13047929Y6068468D01*
X13157576Y5979860D01*
X13259265Y5881403D01*
X13352268Y5773559D01*
X13435855Y5656791D01*
X13509298Y5531563D01*
X13539092Y5472050D01*
X13584311Y5367903D01*
X13620918Y5263056D01*
X13650142Y5153494D01*
X13673213Y5035202D01*
X13673566Y5033055D01*
X13679216Y4987327D01*
X13683249Y4931378D01*
X13685662Y4868607D01*
X13686456Y4802416D01*
X13685628Y4736205D01*
X13683177Y4673376D01*
X13679102Y4617329D01*
X13673737Y4573535D01*
X13643825Y4427391D01*
X13601610Y4286337D01*
X13547394Y4151084D01*
X13481478Y4022342D01*
X13404165Y3900822D01*
X13365820Y3848792D01*
X13320549Y3793705D01*
X13267468Y3735126D01*
X13210347Y3676911D01*
X13152959Y3622917D01*
X13103119Y3580244D01*
X12986504Y3494840D01*
X12862322Y3420500D01*
X12731738Y3357706D01*
X12595917Y3306942D01*
X12456025Y3268690D01*
X12313226Y3243436D01*
X12281988Y3239721D01*
X12241032Y3236528D01*
X12190461Y3234501D01*
X12134330Y3233631D01*
X12076693Y3233910D01*
X12021603Y3235326D01*
X11973114Y3237873D01*
X11943897Y3240476D01*
X11804889Y3262949D01*
X11667153Y3298565D01*
X11532127Y3346753D01*
X11401247Y3406937D01*
X11275950Y3478546D01*
X11176684Y3546648D01*
X11132847Y3581447D01*
X11083936Y3623980D01*
X11033168Y3671158D01*
X10983762Y3719895D01*
X10938938Y3767101D01*
X10901914Y3809690D01*
X10899956Y3812099D01*
X10814833Y3928062D01*
X10740347Y4051914D01*
X10677080Y4182260D01*
X10625611Y4317707D01*
X10586520Y4456861D01*
X10560388Y4598329D01*
X10555262Y4640089D01*
X10554275Y4656247D01*
X10553362Y4685895D01*
X10552520Y4729051D01*
X10551751Y4785732D01*
X10551577Y4803268D01*
X11079664Y4803268D01*
X11080147Y4743257D01*
X11081887Y4693491D01*
X11085376Y4650521D01*
X11091106Y4610895D01*
X11099569Y4571161D01*
X11111257Y4527869D01*
X11125612Y4480881D01*
X11166757Y4373021D01*
X11219631Y4271308D01*
X11283349Y4176502D01*
X11357025Y4089362D01*
X11439771Y4010649D01*
X11530702Y3941121D01*
X11628932Y3881539D01*
X11733573Y3832662D01*
X11843740Y3795249D01*
X11954186Y3770773D01*
X11989302Y3766464D01*
X12032773Y3763930D01*
X12086437Y3763104D01*
X12142817Y3763721D01*
X12193232Y3764997D01*
X12233162Y3766778D01*
X12265837Y3769377D01*
X12294487Y3773110D01*
X12322344Y3778292D01*
X12345166Y3783439D01*
X12461786Y3817860D01*
X12571686Y3863719D01*
X12674241Y3920342D01*
X12768827Y3987053D01*
X12854816Y4063177D01*
X12931585Y4148040D01*
X12998508Y4240966D01*
X13054959Y4341281D01*
X13100313Y4448310D01*
X13133944Y4561377D01*
X13151733Y4653977D01*
X13157838Y4713530D01*
X13160303Y4780983D01*
X13159263Y4851702D01*
X13154853Y4921056D01*
X13147206Y4984411D01*
X13141194Y5017271D01*
X13109918Y5131851D01*
X13066670Y5240576D01*
X13012201Y5342729D01*
X12947260Y5437593D01*
X12872598Y5524449D01*
X12788963Y5602579D01*
X12697105Y5671266D01*
X12597775Y5729791D01*
X12491721Y5777436D01*
X12379694Y5813484D01*
X12289409Y5832958D01*
X12220648Y5841463D01*
X12145040Y5845222D01*
X12067036Y5844348D01*
X11991084Y5838951D01*
X11921632Y5829143D01*
X11892452Y5823029D01*
X11774747Y5788406D01*
X11664030Y5742236D01*
X11560872Y5685096D01*
X11465839Y5617562D01*
X11379502Y5540211D01*
X11302429Y5453621D01*
X11235189Y5358368D01*
X11178352Y5255028D01*
X11132485Y5144179D01*
X11098158Y5026397D01*
X11095567Y5015087D01*
X11089921Y4988215D01*
X11085765Y4963403D01*
X11082882Y4937748D01*
X11081054Y4908346D01*
X11080062Y4872292D01*
X11079688Y4826683D01*
X11079664Y4803268D01*
X10551577Y4803268D01*
X10551055Y4855956D01*
X10550431Y4939739D01*
G37*
G36*
X17425169Y4999722D02*
G01*
X17449605Y5141193D01*
X17456349Y5170241D01*
X17497261Y5310091D01*
X17550636Y5444709D01*
X17616007Y5573436D01*
X17692905Y5695614D01*
X17780859Y5810583D01*
X17879402Y5917687D01*
X17988063Y6016266D01*
X18106374Y6105663D01*
X18137997Y6126888D01*
X18164202Y6142996D01*
X18198916Y6162837D01*
X18238251Y6184262D01*
X18278322Y6205125D01*
X18292614Y6212301D01*
X18425408Y6270654D01*
X18562086Y6316077D01*
X18701791Y6348514D01*
X18843663Y6367908D01*
X18986844Y6374204D01*
X19130476Y6367343D01*
X19273701Y6347271D01*
X19415661Y6313930D01*
X19489130Y6291183D01*
X19572273Y6259689D01*
X19659043Y6220357D01*
X19745973Y6175106D01*
X19829591Y6125855D01*
X19906429Y6074523D01*
X19971146Y6024604D01*
X19992924Y6006608D01*
X20010607Y5992542D01*
X20021705Y5984357D01*
X20024100Y5983068D01*
X20025172Y5989581D01*
X20026111Y6007732D01*
X20026861Y6035443D01*
X20027370Y6070633D01*
X20027583Y6111224D01*
X20027586Y6116825D01*
X20027586Y6250581D01*
X20555752Y6250581D01*
X20555752Y3314799D01*
X20027843Y3314799D01*
X20026000Y3469511D01*
X20024156Y3624223D01*
X19964666Y3576486D01*
X19884642Y3516227D01*
X19802525Y3462747D01*
X19713486Y3412998D01*
X19674331Y3393205D01*
X19542942Y3335874D01*
X19406321Y3290384D01*
X19266684Y3257380D01*
X19148150Y3239721D01*
X19108497Y3236616D01*
X19059370Y3234597D01*
X19004709Y3233658D01*
X18948454Y3233795D01*
X18894546Y3235003D01*
X18846925Y3237277D01*
X18813489Y3240139D01*
X18670118Y3263200D01*
X18531098Y3298824D01*
X18397093Y3346428D01*
X18268767Y3405432D01*
X18146783Y3475256D01*
X18031806Y3555318D01*
X17924498Y3645037D01*
X17825524Y3743834D01*
X17735548Y3851126D01*
X17655234Y3966333D01*
X17585245Y4088875D01*
X17526244Y4218170D01*
X17478897Y4353637D01*
X17459442Y4424952D01*
X17431081Y4567441D01*
X17415912Y4711577D01*
X17414480Y4816520D01*
X17942025Y4816520D01*
X17945873Y4708423D01*
X17959761Y4602652D01*
X17983693Y4502126D01*
X17990160Y4481449D01*
X18033089Y4371741D01*
X18087637Y4268339D01*
X18152948Y4172098D01*
X18228167Y4083871D01*
X18312440Y4004512D01*
X18404910Y3934874D01*
X18504723Y3875810D01*
X18611023Y3828176D01*
X18662748Y3810053D01*
X18728860Y3791246D01*
X18799748Y3775100D01*
X18858074Y3764866D01*
X18871327Y3764029D01*
X18895722Y3763521D01*
X18928687Y3763355D01*
X18967648Y3763545D01*
X19008979Y3764086D01*
X19058989Y3765200D01*
X19098496Y3766820D01*
X19130714Y3769254D01*
X19158857Y3772809D01*
X19186141Y3777794D01*
X19211329Y3783448D01*
X19291868Y3805230D01*
X19365333Y3831092D01*
X19438253Y3863369D01*
X19447269Y3867780D01*
X19550776Y3926372D01*
X19645749Y3995431D01*
X19731680Y4074299D01*
X19808061Y4162318D01*
X19874384Y4258830D01*
X19930142Y4363176D01*
X19974826Y4474698D01*
X20007929Y4592739D01*
X20008471Y4595171D01*
X20013829Y4621252D01*
X20017761Y4646094D01*
X20020472Y4672554D01*
X20022165Y4703490D01*
X20023045Y4741759D01*
X20023315Y4790219D01*
X20023312Y4803268D01*
X20023043Y4854905D01*
X20022209Y4895685D01*
X20020606Y4928469D01*
X20018028Y4956114D01*
X20014269Y4981478D01*
X20009122Y5007420D01*
X20008365Y5010872D01*
X19975724Y5128390D01*
X19931562Y5239335D01*
X19876533Y5343075D01*
X19811293Y5438981D01*
X19736495Y5526420D01*
X19652794Y5604762D01*
X19560845Y5673377D01*
X19461302Y5731632D01*
X19354820Y5778897D01*
X19242054Y5814541D01*
X19155571Y5832958D01*
X19096170Y5840443D01*
X19029383Y5844375D01*
X18959326Y5844831D01*
X18890117Y5841889D01*
X18825872Y5835625D01*
X18770708Y5826117D01*
X18768903Y5825706D01*
X18649966Y5791678D01*
X18538097Y5746202D01*
X18433841Y5689769D01*
X18337742Y5622866D01*
X18250344Y5545985D01*
X18172192Y5459614D01*
X18103830Y5364244D01*
X18045801Y5260364D01*
X17998651Y5148464D01*
X17990704Y5125551D01*
X17964443Y5028004D01*
X17948216Y4924020D01*
X17942025Y4816520D01*
X17414480Y4816520D01*
X17413940Y4856094D01*
X17425169Y4999722D01*
G37*
G36*
X24273085Y4946222D02*
G01*
X24278352Y5007035D01*
X24285103Y5058772D01*
X24286559Y5067351D01*
X24318730Y5210546D01*
X24363014Y5348145D01*
X24418807Y5479589D01*
X24485507Y5604319D01*
X24562511Y5721776D01*
X24649216Y5831403D01*
X24745019Y5932641D01*
X24849319Y6024930D01*
X24961511Y6107713D01*
X25080994Y6180431D01*
X25207165Y6242526D01*
X25339420Y6293438D01*
X25477157Y6332609D01*
X25619774Y6359481D01*
X25689940Y6367862D01*
X25742482Y6371330D01*
X25803937Y6372728D01*
X25870119Y6372170D01*
X25936840Y6369771D01*
X25999913Y6365648D01*
X26055151Y6359916D01*
X26073514Y6357292D01*
X26138765Y6345232D01*
X26209293Y6329098D01*
X26279644Y6310294D01*
X26344364Y6290223D01*
X26371747Y6280581D01*
X26460317Y6244180D01*
X26551007Y6200128D01*
X26640269Y6150457D01*
X26724555Y6097199D01*
X26800315Y6042384D01*
X26830300Y6018072D01*
X26880030Y5976115D01*
X26880030Y7567567D01*
X27408532Y7567567D01*
X27406441Y6108250D01*
X27406208Y5939357D01*
X27406002Y5783596D01*
X27405807Y5640381D01*
X27405610Y5509125D01*
X27405393Y5389243D01*
X27405142Y5280147D01*
X27404842Y5181252D01*
X27404476Y5091971D01*
X27404031Y5011718D01*
X27403490Y4939906D01*
X27402838Y4875950D01*
X27402059Y4819262D01*
X27401139Y4769257D01*
X27400063Y4725348D01*
X27398814Y4686948D01*
X27397377Y4653473D01*
X27395738Y4624334D01*
X27393880Y4598946D01*
X27391789Y4576723D01*
X27389449Y4557077D01*
X27386845Y4539424D01*
X27383961Y4523176D01*
X27380782Y4507747D01*
X27377293Y4492551D01*
X27373478Y4477001D01*
X27369323Y4460511D01*
X27364811Y4442495D01*
X27362653Y4433700D01*
X27321743Y4294375D01*
X27268143Y4159632D01*
X27202379Y4030382D01*
X27124980Y3907539D01*
X27036474Y3792014D01*
X26937388Y3684719D01*
X26919025Y3666882D01*
X26809753Y3571842D01*
X26692287Y3487435D01*
X26567665Y3414142D01*
X26436923Y3352446D01*
X26301096Y3302827D01*
X26161220Y3265768D01*
X26018330Y3241751D01*
X26000594Y3239721D01*
X25970535Y3237369D01*
X25930876Y3235566D01*
X25885110Y3234342D01*
X25836731Y3233725D01*
X25789231Y3233746D01*
X25746105Y3234433D01*
X25710845Y3235815D01*
X25693370Y3237144D01*
X25545337Y3258963D01*
X25402140Y3293370D01*
X25264360Y3339989D01*
X25132579Y3398448D01*
X25007379Y3468374D01*
X24889342Y3549393D01*
X24779049Y3641130D01*
X24677082Y3743214D01*
X24584023Y3855270D01*
X24500455Y3976925D01*
X24474931Y4019333D01*
X24408360Y4147264D01*
X24354203Y4280878D01*
X24312417Y4420311D01*
X24282958Y4565697D01*
X24273147Y4637948D01*
X24269223Y4687598D01*
X24267373Y4747019D01*
X24267478Y4812444D01*
X24268626Y4852394D01*
X24793822Y4852394D01*
X24794404Y4740978D01*
X24807017Y4629269D01*
X24831970Y4518212D01*
X24869575Y4408752D01*
X24911999Y4317135D01*
X24970502Y4219458D01*
X25040207Y4128224D01*
X25119734Y4044665D01*
X25207705Y3970015D01*
X25302741Y3905505D01*
X25403464Y3852370D01*
X25456667Y3830014D01*
X25522298Y3806360D01*
X25582431Y3788532D01*
X25640701Y3775929D01*
X25700745Y3767952D01*
X25766197Y3763999D01*
X25840694Y3763472D01*
X25857993Y3763743D01*
X25908564Y3764946D01*
X25948541Y3766601D01*
X25981049Y3769007D01*
X26009213Y3772464D01*
X26036158Y3777269D01*
X26063772Y3783427D01*
X26129351Y3800648D01*
X26188167Y3819961D01*
X26245761Y3843433D01*
X26307674Y3873136D01*
X26317567Y3878200D01*
X26419051Y3938079D01*
X26512129Y4008470D01*
X26596246Y4088637D01*
X26670847Y4177843D01*
X26735377Y4275350D01*
X26789282Y4380422D01*
X26832007Y4492323D01*
X26860798Y4599905D01*
X26866386Y4628004D01*
X26870437Y4654818D01*
X26873180Y4683425D01*
X26874842Y4716906D01*
X26875650Y4758339D01*
X26875837Y4803268D01*
X26874925Y4870642D01*
X26871786Y4928193D01*
X26865816Y4979719D01*
X26856411Y5029019D01*
X26842967Y5079892D01*
X26824880Y5136137D01*
X26821244Y5146668D01*
X26776054Y5256150D01*
X26719554Y5358503D01*
X26652536Y5453060D01*
X26575790Y5539156D01*
X26490107Y5616125D01*
X26396279Y5683301D01*
X26295095Y5740019D01*
X26187347Y5785613D01*
X26073826Y5819416D01*
X26005468Y5833389D01*
X25971027Y5838842D01*
X25940285Y5842488D01*
X25909439Y5844519D01*
X25874683Y5845129D01*
X25832212Y5844512D01*
X25803119Y5843687D01*
X25709944Y5837866D01*
X25625520Y5825988D01*
X25545862Y5807098D01*
X25466987Y5780245D01*
X25384912Y5744475D01*
X25381272Y5742732D01*
X25278649Y5686176D01*
X25184948Y5619884D01*
X25100479Y5544801D01*
X25025554Y5461871D01*
X24960483Y5372039D01*
X24905577Y5276249D01*
X24861147Y5175445D01*
X24827504Y5070572D01*
X24804959Y4962573D01*
X24793822Y4852394D01*
X24268626Y4852394D01*
X24269422Y4880101D01*
X24273085Y4946222D01*
G37*
G36*
X22576940Y6369962D02*
G01*
X22636564Y6367973D01*
X22689686Y6364129D01*
X22739894Y6357997D01*
X22790780Y6349143D01*
X22845934Y6337135D01*
X22905063Y6322536D01*
X23041182Y6280635D01*
X23172483Y6226273D01*
X23298138Y6160115D01*
X23417323Y6082826D01*
X23529209Y5995069D01*
X23632971Y5897510D01*
X23727782Y5790813D01*
X23812815Y5675642D01*
X23887243Y5552663D01*
X23905286Y5518455D01*
X23956580Y5409027D01*
X23998189Y5299400D01*
X24030803Y5186981D01*
X24055108Y5069175D01*
X24071793Y4943389D01*
X24078186Y4866717D01*
X24082464Y4803268D01*
X23555795Y4803268D01*
X23547589Y4890724D01*
X23529904Y5011991D01*
X23500148Y5126794D01*
X23458196Y5235388D01*
X23403924Y5338031D01*
X23337206Y5434979D01*
X23257919Y5526489D01*
X23221973Y5562282D01*
X23132130Y5638768D01*
X23034416Y5704051D01*
X22929005Y5758040D01*
X22816073Y5800642D01*
X22717686Y5827080D01*
X22692293Y5832326D01*
X22667928Y5836202D01*
X22641820Y5838903D01*
X22611203Y5840623D01*
X22573305Y5841560D01*
X22525359Y5841906D01*
X22507224Y5841925D01*
X22455431Y5841727D01*
X22414583Y5841003D01*
X22381912Y5839558D01*
X22354647Y5837196D01*
X22330021Y5833722D01*
X22305264Y5828940D01*
X22296761Y5827080D01*
X22181668Y5795620D01*
X22075534Y5754394D01*
X21976974Y5702646D01*
X21884599Y5639617D01*
X21797025Y5564552D01*
X21773029Y5541127D01*
X21690689Y5449635D01*
X21621075Y5353040D01*
X21564144Y5251251D01*
X21519855Y5144180D01*
X21488163Y5031738D01*
X21469026Y4913835D01*
X21468333Y4907146D01*
X21467127Y4887916D01*
X21466021Y4855429D01*
X21465019Y4810148D01*
X21464123Y4752534D01*
X21463338Y4683048D01*
X21462668Y4602153D01*
X21462118Y4510310D01*
X21461690Y4407982D01*
X21461389Y4295628D01*
X21461219Y4173712D01*
X21461180Y4075455D01*
X21461180Y3314799D01*
X20933014Y3314799D01*
X20933014Y6250581D01*
X21461180Y6250581D01*
X21461180Y5976175D01*
X21519810Y6024100D01*
X21631278Y6106751D01*
X21751095Y6179730D01*
X21877142Y6241967D01*
X22007305Y6292390D01*
X22109384Y6322588D01*
X22171922Y6337953D01*
X22226767Y6349757D01*
X22277516Y6358433D01*
X22327764Y6364415D01*
X22381107Y6368136D01*
X22441141Y6370029D01*
X22507224Y6370529D01*
X22576940Y6369962D01*
G37*
D13*
%TO.C,J4*%
X58610000Y7140000D02*
X58610000Y9120000D01*
X43890000Y9120000D02*
X58610000Y9120000D01*
X43890000Y3440000D02*
X43890000Y-5100000D01*
X43890000Y9120000D02*
X43890000Y7140000D01*
X43890000Y-5100000D02*
X58610000Y-5100000D01*
X58610000Y3440000D02*
X58610000Y-5100000D01*
%TO.C,J2*%
X17500000Y43800000D02*
X8000000Y43800000D01*
X7500000Y41700000D02*
X7500000Y20750000D01*
X12750000Y28250000D02*
X11750000Y29250000D01*
X18000000Y41750000D02*
X7500000Y41750000D01*
X17500000Y43800000D02*
X17500000Y41775000D01*
X12750000Y28250000D02*
X13750000Y29250000D01*
X8000000Y43800000D02*
X8000000Y41750000D01*
X18000000Y20750000D02*
X7500000Y20750000D01*
X11750000Y29250000D02*
X13750000Y29250000D01*
X12750000Y36250000D02*
X12750000Y28250000D01*
X18000000Y20750000D02*
X18000000Y41750000D01*
%TO.C,J3*%
X45090000Y31260000D02*
X45090000Y27000000D01*
X45090000Y35360000D02*
X45090000Y43720000D01*
X45090000Y43720000D02*
X57410000Y43720000D01*
X57410000Y43720000D02*
X57410000Y35360000D01*
X45090000Y27000000D02*
X57410000Y27000000D01*
X57410000Y27000000D02*
X57410000Y31260000D01*
%TO.C,J1*%
X36500000Y43800000D02*
X27000000Y43800000D01*
X31750000Y36250000D02*
X31750000Y28250000D01*
X31750000Y28250000D02*
X30750000Y29250000D01*
X31750000Y28250000D02*
X32750000Y29250000D01*
X37000000Y41750000D02*
X26500000Y41750000D01*
X37000000Y20750000D02*
X26500000Y20750000D01*
X36500000Y43800000D02*
X36500000Y41775000D01*
X27000000Y43800000D02*
X27000000Y41750000D01*
X30750000Y29250000D02*
X32750000Y29250000D01*
X37000000Y20750000D02*
X37000000Y41750000D01*
X26500000Y41700000D02*
X26500000Y20750000D01*
%TD*%
%LPC*%
D14*
%TO.C,J4*%
X47750000Y8000000D03*
D15*
X50250000Y8000000D03*
X52250000Y8000000D03*
X54750000Y8000000D03*
D16*
X57820000Y5290000D03*
X44680000Y5290000D03*
%TD*%
D17*
%TO.C,H3*%
X0Y0D03*
%TD*%
%TO.C,H1*%
X63500000Y0D03*
%TD*%
D16*
%TO.C,J2*%
X12750000Y24250000D03*
X12750000Y39550000D03*
%TD*%
D17*
%TO.C,H2*%
X63500000Y38500000D03*
%TD*%
%TO.C,H4*%
X0Y38500000D03*
%TD*%
D18*
%TO.C,J3*%
X50000000Y28600000D03*
D19*
X52500000Y28600000D03*
X52500000Y30600000D03*
X50000000Y30600000D03*
D16*
X45230000Y33310000D03*
X57270000Y33310000D03*
%TD*%
%TO.C,J1*%
X31750000Y24250000D03*
X31750000Y39550000D03*
%TD*%
M02*
